<?xml version="1.0" encoding="iso-8859-1"?>
<!-- Generator: Adobe Illustrator 21.1.0, SVG Export Plug-In . SVG Version: 6.00 Build 0)  -->
<svg version="1.1" id="Layer_1" xmlns="http://www.w3.org/2000/svg" xmlns:xlink="http://www.w3.org/1999/xlink" x="0px" y="0px"
	 viewBox="0 0 34 34" style="enable-background:new 0 0 34 34;" xml:space="preserve">


<g>
	<path  style="fill:#FFFFFF;" d="M17,34C7.625,34,0,26.375,0,17S7.625,0,17,0s17,7.625,17,17S26.375,34,17,34z M17,3.399
		C9.501,3.399,3.399,9.501,3.399,17S9.501,30.601,17,30.601S30.601,24.499,30.601,17S24.499,3.399,17,3.399z"
	/>
	<path style="fill:#D1181F;" d="M17,3.399C9.501,3.399,3.399,9.501,3.399,17S9.501,30.601,17,30.601S30.601,24.499,30.601,17
		S24.499,3.399,17,3.399z"/>
</g>
</svg>

