<?xml version="1.0" encoding="iso-8859-1"?>
<!-- Generator: Adobe Illustrator 21.1.0, SVG Export Plug-In . SVG Version: 6.00 Build 0)  -->
<svg version="1.1" id="Layer_1" xmlns="http://www.w3.org/2000/svg" xmlns:xlink="http://www.w3.org/1999/xlink" x="0px" y="0px"
	 viewBox="0 0 292 256" style="enable-background:new 0 0 292 256;" xml:space="preserve">
<g>
	<g>
		<path style="fill:#C62035;" d="M76.698,0.599l-76.7,215.4l39.9,14.2c-0.6-0.5-1.1-0.9-1.7-1.4c-8.6-8.1-13-18.4-13-31
			c0-8.2,2-15.4,5.9-21.8c3.9-6.3,9.6-11.5,16.9-15.3c7.3-3.9,15.2-5.8,23.7-5.8c7.2,0,14.1,1.4,20.8,4.3
			c6.7,2.9,12.4,6.9,17.2,12.2l-11.6,10.4c-7.9-7.8-16.8-11.8-26.7-11.8c-8.3,0-15.4,2.7-21.1,8c-5.7,5.4-8.6,11.9-8.6,19.8
			c0,5.5,1.3,10.3,3.8,14.5c2.5,4.2,6.1,7.6,10.7,10c4.6,2.4,9.8,3.6,15.4,3.6c4.8,0,9.2-0.8,13.2-2.5s8.4-4.8,13.2-9.2l11.3,11
			c-6.4,5.9-12.5,10-18.3,12.3c-5.7,2.3-12.3,3.4-19.6,3.4c-0.6,0-1.2-0.1-1.8-0.1l42.8,15.2h115.9l63.7-178.7L76.698,0.599z
			 M204.798,178.299h-34.6v62.8h-16.8v-62.8h-34.4v-16.3h85.7v16.3H204.798z"/>
	</g>
</g>
</svg>
