<?xml version="1.0" encoding="utf-8"?>
<!-- Generator: Adobe Illustrator 21.0.2, SVG Export Plug-In . SVG Version: 6.00 Build 0)  -->
<svg version="1.1" id="Layer_1" xmlns="http://www.w3.org/2000/svg" xmlns:xlink="http://www.w3.org/1999/xlink" x="0px" y="0px"
	 viewBox="0 0 545 182" style="enable-background:new 0 0 545 182;" xml:space="preserve">
<style type="text/css">
	.st0{fill:#3A6A86;}
	.st1{fill:#305568;}
	.st2{fill:#3F748E;}
	.st3{fill:#FFFFFF;stroke:#FFFFFF;stroke-width:1.5045;stroke-linecap:round;stroke-linejoin:round;stroke-miterlimit:10;}
	.st4{fill:#FFFFFF;}
	.st5{font-family:'MyriadPro-Regular';}
	.st6{font-size:33.874px;}
</style>
<g>
	<polygon class="st0" points="496.9,182 0,182 48.1,90.8 0,0 496.9,0 545,90.8 	"/>
	<polygon class="st1" points="496.9,182 495.6,182 543.6,90.8 495.6,0 496.9,0 545,90.8 544.9,91.1 	"/>
	<polygon class="st2" points="1.4,182 0,182 48.1,90.8 0,0 1.4,0 49.5,90.8 49.3,91.1 	"/>
</g>
<g>
	<path class="st3" d="M168.8,106l48.6-9.7c0.7-0.1,1.1-0.8,1-1.4c-0.1-0.7-0.8-1.1-1.4-1L156.5,106"/>
	<path class="st3" d="M186.4,43.1v-7.2h-1.2v7.2c0.2,0,0.4,0,0.6,0C186,43.1,186.2,43.1,186.4,43.1z"/>
	<path class="st3" d="M177.2,45.2l-3.6-6.3l-1.1,0.6l3.6,6.3C176.5,45.6,176.9,45.4,177.2,45.2z"/>
	<path class="st3" d="M163.8,48.6l-0.3,0.5l6.3,3.6c0.2-0.4,0.4-0.7,0.6-1.1l-6.3-3.6L163.8,48.6z"/>
	<path class="st3" d="M207.8,74l0.3-0.5l-6.3-3.6c-0.2,0.4-0.4,0.7-0.6,1.1l6.3,3.6L207.8,74z"/>
	<path class="st3" d="M167.6,61.3c0-0.2,0-0.4,0-0.6h-7.2v1.2h7.2C167.6,61.7,167.6,61.5,167.6,61.3z"/>
	<path class="st3" d="M211.2,60.7H204c0,0.2,0,0.4,0,0.6s0,0.4,0,0.6h7.2V60.7z"/>
	<path class="st3" d="M163.8,74l0.3,0.5l6.3-3.6c-0.2-0.3-0.4-0.7-0.6-1.1l-6.3,3.6L163.8,74z"/>
	<path class="st3" d="M207.5,48.1l-6.3,3.6c0.2,0.3,0.4,0.7,0.6,1.1l6.3-3.6L207.5,48.1z"/>
	<path class="st3" d="M198,39l-3.6,6.3c0.4,0.2,0.7,0.4,1.1,0.6l3.6-6.3L198,39z"/>
	<path class="st3" d="M178,71.9c-3.6-2.7-5.5-7-5.2-11.5c0.5-6.2,5.3-11.1,11.5-11.8c3.8-0.4,7.4,0.7,10.2,3.2
		c2.8,2.5,4.3,6,4.3,9.7c0,4.1-1.9,7.9-5.2,10.4c-0.6,0.5-1,1.1-1.2,1.9h-6V61.3h-1.2v12.5h-6C179,73.1,178.6,72.4,178,71.9z
		 M190.4,86.2V85c1.9-0.7,3.3-2.5,3.3-4.6v-5.9c0-0.6,0.3-1.2,0.7-1.5c3.6-2.7,5.7-6.9,5.7-11.4c0-4-1.7-7.9-4.7-10.6
		c-3.1-2.7-7-4-11.1-3.5c-6.7,0.7-12,6.2-12.6,12.9c-0.4,4.9,1.7,9.6,5.7,12.6c0.5,0.3,0.7,0.9,0.7,1.5v5.9c0,2.1,1.3,3.9,3.3,4.6
		v1.2c0,1.4,1.1,2.5,2.5,2.5h4.1C189.2,88.7,190.4,87.6,190.4,86.2z"/>
	<path class="st4" d="M149.3,126.9v18.6H222v-18.6H149.3z M193.3,134.4h-16.9c-0.6,0-1.1-0.5-1.1-1.1s0.5-1.1,1.1-1.1h16.9
		c0.6,0,1.1,0.5,1.1,1.1S193.9,134.4,193.3,134.4z"/>
	<g>
		<circle class="st4" cx="211.6" cy="116" r="2.4"/>
		<rect x="157.8" y="112.4" class="st4" width="21.8" height="7.3"/>
		<path class="st4" d="M214.9,105.1h-46l-12.4,0c-3.9,0-7.1,3.2-7.1,7.2v12.2H222v-12.2C222,108.3,218.8,105.1,214.9,105.1z
			 M182,122.1h-26.7V110H182V122.1z M188.1,119.7h-1.2c-0.7,0-1.2-0.5-1.2-1.2s0.5-1.2,1.2-1.2h1.2c0.7,0,1.2,0.5,1.2,1.2
			S188.8,119.7,188.1,119.7z M188.1,114.8h-1.2c-0.7,0-1.2-0.5-1.2-1.2s0.5-1.2,1.2-1.2h1.2c0.7,0,1.2,0.5,1.2,1.2
			S188.8,114.8,188.1,114.8z M194.2,119.7H193c-0.7,0-1.2-0.5-1.2-1.2s0.5-1.2,1.2-1.2h1.2c0.7,0,1.2,0.5,1.2,1.2
			S194.8,119.7,194.2,119.7z M194.2,114.8H193c-0.7,0-1.2-0.5-1.2-1.2s0.5-1.2,1.2-1.2h1.2c0.7,0,1.2,0.5,1.2,1.2
			S194.8,114.8,194.2,114.8z M198.9,119.7c-0.7,0-1.2-0.5-1.2-1.2s0.5-1.2,1.2-1.2s1.2,0.5,1.2,1.2S199.5,119.7,198.9,119.7z
			 M198.9,114.8c-0.7,0-1.2-0.5-1.2-1.2s0.5-1.2,1.2-1.2s1.2,0.5,1.2,1.2S199.5,114.8,198.9,114.8z M203.4,119.7
			c-0.7,0-1.2-0.5-1.2-1.2s0.5-1.2,1.2-1.2s1.2,0.5,1.2,1.2S204.1,119.7,203.4,119.7z M203.4,114.8c-0.7,0-1.2-0.5-1.2-1.2
			s0.5-1.2,1.2-1.2s1.2,0.5,1.2,1.2S204.1,114.8,203.4,114.8z M211.6,120.9c-2.7,0-4.8-2.2-4.8-4.8c0-2.7,2.2-4.8,4.8-4.8
			s4.8,2.2,4.8,4.8C216.4,118.7,214.3,120.9,211.6,120.9z"/>
	</g>
</g>
<text transform="matrix(1 0 0 1 256.4085 107.6132)" class="st4 st5 st6">Hybride</text>
</svg>
