<?xml version="1.0" encoding="utf-8"?>
<!-- Generator: Adobe Illustrator 21.0.2, SVG Export Plug-In . SVG Version: 6.00 Build 0)  -->
<svg version="1.1" id="Layer_1" xmlns="http://www.w3.org/2000/svg" xmlns:xlink="http://www.w3.org/1999/xlink" x="0px" y="0px"
	 viewBox="0 0 499 182" style="enable-background:new 0 0 499 182;" xml:space="preserve">
<style type="text/css">
	.st0{fill:#2E87BC;}
	.st1{fill:#1D5572;}
	.st2{fill:#FFFFFF;stroke:#FFFFFF;stroke-width:0.7522;stroke-miterlimit:10;}
	.st3{fill:#FFFFFF;stroke:#FFFFFF;stroke-width:1.1284;stroke-miterlimit:10;}
	.st4{fill:#FFFFFF;}
	.st5{font-family:'Poppins', sans-serif;}
	.st6{font-size:33.874px;}
	.st7{font-weight:600;}
</style>
<g>
	<polygon class="st0" points="450.9,182 0,182 0,0 450.9,0 499,90.8 	"/>
	<polygon class="st1" points="450.9,182 449.5,182 497.6,90.8 449.5,0 450.9,0 499,90.8 498.9,91.1 	"/>
</g>
<g>
	<path class="st2" d="M101.5,61.6h19v6.3h-19V61.6z M99.4,70h23.2V59.5H99.4V70z"/>
	<path class="st2" d="M147.9,66.9c-1.2,0-2.1-0.9-2.1-2.1s0.9-2.1,2.1-2.1c1.2,0,2.1,0.9,2.1,2.1C150.1,65.9,149.1,66.9,147.9,66.9z
		 M147.9,60.5c-2.3,0-4.2,1.9-4.2,4.2s1.9,4.2,4.2,4.2s4.2-1.9,4.2-4.2S150.3,60.5,147.9,60.5z"/>
	<path class="st2" d="M127.9,61.6h-1.1c-0.6,0-1.1,0.5-1.1,1.1s0.5,1.1,1.1,1.1h1.1c0.6,0,1.1-0.5,1.1-1.1S128.5,61.6,127.9,61.6"/>
	<path class="st2" d="M127.9,65.8h-1.1c-0.6,0-1.1,0.5-1.1,1.1s0.5,1.1,1.1,1.1h1.1c0.6,0,1.1-0.5,1.1-1.1
		C129,66.3,128.5,65.8,127.9,65.8"/>
	<path class="st2" d="M133.2,61.6h-1.1c-0.6,0-1.1,0.5-1.1,1.1s0.5,1.1,1.1,1.1h1.1c0.6,0,1.1-0.5,1.1-1.1S133.8,61.6,133.2,61.6"/>
	<path class="st2" d="M133.2,65.8h-1.1c-0.6,0-1.1,0.5-1.1,1.1s0.5,1.1,1.1,1.1h1.1c0.6,0,1.1-0.5,1.1-1.1
		C134.2,66.3,133.8,65.8,133.2,65.8"/>
	<path class="st3" d="M97.2,87.1l-17.5-3.5c-0.6-0.1-1.1,0.3-1.2,0.8c-0.1,0.6,0.3,1.1,0.8,1.2L97,89.2"/>
	<path class="st3" d="M99.4,100.4l-19.7-3.9c-0.6-0.1-1.1,0.3-1.2,0.8c-0.1,0.6,0.3,1.1,0.8,1.2l19.9,4"/>
	<path class="st3" d="M100.4,54.6L153.1,44c0.2,0,0.4,0,0.5,0.1c0.1,0.1,0.3,0.3,0.3,0.4c0.1,0.4-0.2,0.7-0.5,0.8L111,53.8"/>
	<g>
		<path class="st4" d="M129.9,89.2C130,89.2,130,89.1,129.9,89.2l0.1-2.1h-9.5v2c0,0,0,0.1,0.1,0.1H129.9z"/>
		<path class="st4" d="M129.9,101.8C130,101.8,130,101.8,129.9,101.8l0.1-2.1h-9.5v2c0,0,0,0.1,0.1,0.1H129.9z"/>
		<path class="st4" d="M142,87.1h-9.9v2c0,1.2-1,2.2-2.2,2.2h-9.3c-1.2,0-2.2-1-2.2-2.2v-2h-8.9c-0.9,0-1.7,0.8-1.7,1.7v8.9h35.9
			v-8.9C143.7,87.8,143,87.1,142,87.1z"/>
		<path class="st4" d="M132.1,101.8c0,1.2-1,2.2-2.2,2.2h-9.3c-1.2,0-2.2-1-2.2-2.2v-2h-10.6v10.7h35.9V99.7h-11.6L132.1,101.8
			L132.1,101.8z"/>
		<path class="st4" d="M107.8,123.3h35.9v-10.8h-35.9C107.8,112.5,107.8,123.3,107.8,123.3z M119.5,114.6h11.6
			c0.6,0,1.1,0.5,1.1,1.1s-0.5,1.1-1.1,1.1h-11.6c-0.6,0-1.1-0.5-1.1-1.1C118.4,115,118.9,114.6,119.5,114.6z"/>
		<path class="st4" d="M107.8,136.1h35.9v-10.7h-35.9C107.8,125.4,107.8,136.1,107.8,136.1z M119.5,127.1h11.6
			c0.6,0,1.1,0.5,1.1,1.1s-0.5,1.1-1.1,1.1h-11.6c-0.6,0-1.1-0.5-1.1-1.1C118.4,127.6,118.9,127.1,119.5,127.1z"/>
		<path class="st4" d="M151.2,53.8h-40.1l-10.7,0c-3.3,0-5.9,2.7-5.9,5.9v76.4h10.9V88.8c0-2.3,1.9-4.2,4.2-4.2H142
			c2.3,0,4.2,1.9,4.2,4.2v47.4h10.9V59.7C157.1,56.5,154.4,53.8,151.2,53.8z M133.2,81.1h-15.8c-0.8,0-1.4-0.6-1.4-1.4
			c0-0.8,0.6-1.4,1.4-1.4h15.8c0.8,0,1.4,0.6,1.4,1.4C134.6,80.5,134,81.1,133.2,81.1z M155,73H96.6V59.7c0-2.1,1.7-3.8,3.8-3.8
			h50.8c2.1,0,3.8,1.7,3.8,3.8V73z"/>
	</g>
</g>
<text transform="matrix(1 0 0 1 190.1699 107.6131)" class="st4 st5 st6 st7">Papier</text>
</svg>
