<?xml version="1.0" encoding="utf-8"?>
<!-- Generator: Adobe Illustrator 21.0.2, SVG Export Plug-In . SVG Version: 6.00 Build 0)  -->
<svg version="1.1" id="Layer_1" xmlns="http://www.w3.org/2000/svg" xmlns:xlink="http://www.w3.org/1999/xlink" x="0px" y="0px"
	 viewBox="0 0 499 182" style="enable-background:new 0 0 499 182;" xml:space="preserve">
<style type="text/css">
	.st0{fill:#047866;}
	.st1{fill:#0A876F;}
	.st2{fill:#FFFFFF;}
	.st3{font-family:'Poppins', sans-serif;}
	.st4{font-size:33.874px;}
	.st5{font-weight:600;}
</style>
<g>
	<polygon class="st0" points="498.5,182 0,182 48.1,90.8 0,0 498.5,0 	"/>
	<polygon class="st1" points="1.4,182 0,182 48.1,90.8 0,0 1.4,0 49.5,90.8 49.3,91.1 	"/>
</g>
<g>
	<path class="st2" d="M158.2,92.6c1.6,0,2.9-1.3,2.9-2.9s-1.3-2.9-2.9-2.9s-2.9,1.3-2.9,2.9S156.5,92.6,158.2,92.6z"/>
	<path class="st2" d="M137,78.2c1.6,0,2.9-1.3,2.9-2.9s-1.3-2.9-2.9-2.9s-2.9,1.3-2.9,2.9C134.1,77,135.4,78.2,137,78.2z"/>
	<path class="st2" d="M137,101.3c-1.6,0-2.9,1.3-2.9,2.9c0,1.6,1.3,2.9,2.9,2.9s2.9-1.3,2.9-2.9C139.9,102.6,138.6,101.3,137,101.3z
		"/>
	<path class="st2" d="M186.3,57c-0.3-0.3-0.7-0.5-1.1-0.5h-4.1v-4.1c0-0.4-0.1-0.8-0.4-1.1c-0.3-0.3-0.7-0.5-1.1-0.5h-3.8V47
		c0-0.4-0.1-0.8-0.4-1c-0.3-0.3-0.7-0.5-1.1-0.5h-44.1c-0.4,0-0.8,0.2-1,0.5c0,0-0.1,0-0.1,0.1l-10.6,10.6c-0.3,0.3-0.5,0.6-0.5,1.1
		l-0.1,0.1v63.6c0,0.4,0.2,0.8,0.5,1.1c0.3,0.3,0.6,0.4,1,0.4h3.8v3.8c0,0.4,0.2,0.8,0.5,1.1c0.2,0.2,0.5,0.4,0.8,0.4
		c0.1,0,0.2,0,0.2,0h4.1v4.1c0,0.4,0.2,0.8,0.5,1.1c0.2,0.2,0.5,0.4,0.8,0.4c0.1,0,0.2,0,0.2,0h54.8c0.4,0,0.8-0.1,1.1-0.4
		c0.3-0.3,0.4-0.7,0.4-1.1V58C186.7,57.6,186.6,57.3,186.3,57z M137,68.6c3.7,0,6.7,3,6.7,6.7c0,0.3,0,0.6-0.1,0.9l10.1,8.4
		c1.2-1,2.7-1.7,4.4-1.7c3.7,0,6.7,3,6.7,6.7s-3,6.7-6.7,6.7c-1.7,0-3.2-0.6-4.4-1.7l-10.1,8.4c0,0.3,0.1,0.6,0.1,1
		c0,3.7-3,6.7-6.7,6.7c-3.7,0-6.7-3-6.7-6.7c0-3.7,3-6.7,6.7-6.7c1.9,0,3.7,0.8,4.9,2.2l9.7-8.1c-0.2-0.6-0.2-1.1-0.2-1.7
		c0-0.6,0.1-1.2,0.2-1.8l-9.7-8.1c-1.2,1.3-3,2.2-5,2.2c-3.7,0-6.7-3-6.7-6.7S133.3,68.6,137,68.6z M121,59.2l10.8-10.8v9.4
		c0,0.4-0.1,0.7-0.4,1c-0.3,0.3-0.6,0.4-1,0.4C130.4,59.2,121,59.2,121,59.2z M126.3,125.1v-2.2h47.9c0.4,0,0.8-0.1,1.1-0.4
		c0.3-0.3,0.4-0.7,0.4-1.1V53.9h2.2v71.2H126.3z M183.6,130.8h-51.7v-2.6h47.6c0.4,0,0.8-0.1,1.1-0.4c0.3-0.3,0.4-0.7,0.4-1.1V59.6
		h2.5V130.8z"/>
</g>
<text transform="matrix(1 0 0 1 221.4939 107.6132)" class="st2 st3 st4 st5">Digital</text>
</svg>
