<?xml version="1.0" encoding="utf-8"?>
<!-- Generator: Adobe Illustrator 21.0.2, SVG Export Plug-In . SVG Version: 6.00 Build 0)  -->
<svg version="1.1" id="Layer_1" xmlns="http://www.w3.org/2000/svg" xmlns:xlink="http://www.w3.org/1999/xlink" x="0px" y="0px"
	 viewBox="0 0 1308 193" style="enable-background:new 0 0 1308 193;" xml:space="preserve">
<defs>
	<style>
		@import url('https://fonts.googleapis.com/css?family=Poppins:400,600');
	</style>
</defs>
<style type="text/css">
	.st0{fill:#2E87BC;}
	.st1{fill:#1D5572;}
	.st2{fill:#3A6A86;}
	.st3{fill:#305568;}
	.st4{fill:#3F748E;}
	.st5{fill:#047866;}
	.st6{fill:#0A876F;}
	.st7{fill:#FFFFFF;stroke:#FFFFFF;stroke-width:0.6241;stroke-miterlimit:10;}
	.st8{fill:#FFFFFF;stroke:#FFFFFF;stroke-width:0.9362;stroke-miterlimit:10;}
	.st9{fill:#FFFFFF;}
	.st10{fill:#FFFFFF;stroke:#FFFFFF;stroke-width:1.2482;stroke-linecap:round;stroke-linejoin:round;stroke-miterlimit:10;}
	.st11{font-family:'Poppins', sans-serif;}
	.st12{font-size:28.1043px;}
	.st13{font-weight:600;}
</style>
<g>
	<polygon class="st0" points="399.1,171 25,171 25,20 399.1,20 439,95.4 	"/>
	<polygon class="st1" points="399.1,171 398,171 437.9,95.4 398,20 399.1,20 439,95.4 438.9,95.6 	"/>
</g>
<g>
	<polygon class="st2" points="811.4,171 399.1,171 439,95.4 399.1,20 811.4,20 851.3,95.4 	"/>
	<polygon class="st3" points="811.4,171 810.3,171 850.1,95.4 810.2,20 811.4,20 851.3,95.4 851.2,95.6 	"/>
	<polygon class="st4" points="400.2,171 399.1,171 439,95.4 399.1,20 400.2,20 440.1,95.4 440,95.6 	"/>
</g>
<g>
	<polygon class="st5" points="1225,171 811.4,171 851.3,95.4 811.4,20 1225,20 	"/>
	<polygon class="st6" points="812.5,171 811.4,171 851.3,95.4 811.4,20 812.5,20 852.4,95.4 852.3,95.6 	"/>
</g>
<g>
	<path class="st7" d="M109.2,71.1H125v5.3h-15.8V71.1z M107.5,78.1h19.3v-8.8h-19.3V78.1z"/>
	<path class="st7" d="M147.7,75.5c-1,0-1.8-0.8-1.8-1.8c0-1,0.8-1.8,1.8-1.8s1.8,0.8,1.8,1.8C149.5,74.7,148.7,75.5,147.7,75.5z
		 M147.7,70.2c-1.9,0-3.5,1.6-3.5,3.5s1.6,3.5,3.5,3.5s3.5-1.6,3.5-3.5C151.3,71.8,149.7,70.2,147.7,70.2z"/>
	<path class="st7" d="M131.1,71.1h-0.9c-0.5,0-0.9,0.4-0.9,0.9s0.4,0.9,0.9,0.9h0.9c0.5,0,0.9-0.4,0.9-0.9
		C132,71.5,131.6,71.1,131.1,71.1"/>
	<path class="st7" d="M131.1,74.6h-0.9c-0.5,0-0.9,0.4-0.9,0.9s0.4,0.9,0.9,0.9h0.9c0.5,0,0.9-0.4,0.9-0.9
		C132,75,131.6,74.6,131.1,74.6"/>
	<path class="st7" d="M135.5,71.1h-0.9c-0.5,0-0.9,0.4-0.9,0.9s0.4,0.9,0.9,0.9h0.9c0.5,0,0.9-0.4,0.9-0.9
		C136.4,71.5,136,71.1,135.5,71.1"/>
	<path class="st7" d="M135.5,74.6h-0.9c-0.5,0-0.9,0.4-0.9,0.9s0.4,0.9,0.9,0.9h0.9c0.5,0,0.9-0.4,0.9-0.9
		C136.4,75,136,74.6,135.5,74.6"/>
	<path class="st8" d="M105.6,92.2l-14.5-2.9c-0.5-0.1-0.9,0.2-1,0.7c-0.1,0.5,0.2,0.9,0.7,1l14.7,2.9"/>
	<path class="st8" d="M107.5,103.3L91.1,100c-0.5-0.1-0.9,0.2-1,0.7c-0.1,0.5,0.2,0.9,0.7,1l16.5,3.3"/>
	<path class="st8" d="M108.3,65.3l43.7-8.7c0.2,0,0.3,0,0.4,0.1s0.2,0.2,0.2,0.4c0.1,0.3-0.1,0.6-0.4,0.7l-35.1,7"/>
	<g>
		<path class="st9" d="M132.8,94C132.8,94,132.9,94,132.8,94l0.1-1.8H125v1.7c0,0,0,0.1,0.1,0.1H132.8z"/>
		<path class="st9" d="M132.8,104.5C132.8,104.5,132.9,104.5,132.8,104.5l0.1-1.8H125v1.7c0,0,0,0.1,0.1,0.1H132.8z"/>
		<path class="st9" d="M142.8,92.2h-8.2v1.7c0,1-0.8,1.8-1.8,1.8H125c-1,0-1.8-0.8-1.8-1.8v-1.7h-7.4c-0.8,0-1.4,0.6-1.4,1.4v7.4
			h29.8v-7.4C144.2,92.9,143.6,92.2,142.8,92.2z"/>
		<path class="st9" d="M134.6,104.4c0,1-0.8,1.8-1.8,1.8H125c-1,0-1.8-0.8-1.8-1.8v-1.7h-8.8v8.9h29.8v-8.9h-9.6V104.4z"/>
		<path class="st9" d="M114.5,122.3h29.8v-9h-29.8C114.5,113.4,114.5,122.3,114.5,122.3z M124.1,115h9.6c0.5,0,0.9,0.4,0.9,0.9
			s-0.4,0.9-0.9,0.9h-9.6c-0.5,0-0.9-0.4-0.9-0.9S123.6,115,124.1,115z"/>
		<path class="st9" d="M114.5,133h29.8v-8.9h-29.8C114.5,124.1,114.5,133,114.5,133z M124.1,125.4h9.6c0.5,0,0.9,0.4,0.9,0.9
			s-0.4,0.9-0.9,0.9h-9.6c-0.5,0-0.9-0.4-0.9-0.9C123.2,125.8,123.6,125.4,124.1,125.4z"/>
		<path class="st9" d="M150.4,64.7h-33.2l-8.9,0c-2.7,0-4.9,2.2-4.9,4.9V133h9V93.6c0-1.9,1.6-3.5,3.5-3.5h27c1.9,0,3.5,1.6,3.5,3.5
			V133h9V69.5C155.3,66.8,153.1,64.7,150.4,64.7z M135.5,87.3h-13.1c-0.7,0-1.2-0.5-1.2-1.2c0-0.7,0.5-1.2,1.2-1.2h13.1
			c0.7,0,1.2,0.5,1.2,1.2C136.7,86.8,136.1,87.3,135.5,87.3z M153.6,80.5h-48.4v-11c0-1.7,1.4-3.1,3.1-3.1h42.2
			c1.7,0,3.1,1.4,3.1,3.1V80.5z"/>
	</g>
</g>
<g>
	<path class="st10" d="M539.2,108l40.3-8.1c0.5-0.1,0.9-0.6,0.8-1.2c-0.1-0.5-0.6-0.9-1.2-0.8l-50.2,10"/>
	<path class="st10" d="M553.8,55.8v-6h-1v6c0.2,0,0.3,0,0.5,0C553.4,55.8,553.6,55.8,553.8,55.8z"/>
	<path class="st10" d="M546.1,57.5l-3-5.2l-0.9,0.5l3,5.2C545.5,57.9,545.8,57.7,546.1,57.5z"/>
	<path class="st10" d="M535,60.3l-0.3,0.4l5.2,3c0.2-0.3,0.3-0.6,0.5-0.9l-5.2-3L535,60.3z"/>
	<path class="st10" d="M571.5,81.4l0.3-0.4l-5.2-3c-0.2,0.3-0.3,0.6-0.5,0.9l5.2,3L571.5,81.4z"/>
	<path class="st10" d="M538.1,70.9c0-0.2,0-0.3,0-0.5h-6v1h6C538.1,71.2,538.1,71,538.1,70.9z"/>
	<path class="st10" d="M574.4,70.4h-6c0,0.2,0,0.3,0,0.5s0,0.3,0,0.5h6V70.4z"/>
	<path class="st10" d="M535,81.4l0.3,0.4l5.2-3c-0.2-0.3-0.4-0.6-0.5-0.9l-5.2,3L535,81.4z"/>
	<path class="st10" d="M571.3,59.9l-5.2,3c0.2,0.3,0.4,0.6,0.5,0.9l5.2-3L571.3,59.9z"/>
	<path class="st10" d="M563.4,52.3l-3,5.2c0.3,0.2,0.6,0.3,0.9,0.5l3-5.2L563.4,52.3z"/>
	<path class="st10" d="M546.8,79.7c-3-2.2-4.6-5.8-4.3-9.5c0.4-5.1,4.4-9.2,9.5-9.8c3.1-0.3,6.1,0.6,8.4,2.7c2.3,2,3.6,5,3.6,8
		c0,3.4-1.6,6.6-4.3,8.6c-0.5,0.4-0.8,0.9-1,1.6h-5V70.9h-1v10.4h-5C547.6,80.6,547.3,80.1,546.8,79.7z M557,91.5v-1
		c1.6-0.6,2.7-2.1,2.7-3.8v-4.9c0-0.5,0.2-1,0.6-1.3c3-2.3,4.7-5.7,4.7-9.4c0-3.4-1.4-6.6-3.9-8.8c-2.5-2.3-5.8-3.3-9.2-2.9
		c-5.6,0.6-10,5.1-10.4,10.7c-0.3,4.1,1.4,8,4.7,10.5c0.4,0.3,0.6,0.7,0.6,1.3v4.9c0,1.7,1.1,3.2,2.7,3.8v1c0,1.2,0.9,2.1,2.1,2.1
		h3.4C556.1,93.6,557,92.7,557,91.5z"/>
	<path class="st9" d="M523,125.3v15.5h60.3v-15.5C583.3,125.3,523,125.3,523,125.3z M559.5,131.5h-14.1c-0.5,0-0.9-0.4-0.9-0.9
		c0-0.5,0.4-0.9,0.9-0.9h14.1c0.5,0,0.9,0.4,0.9,0.9C560.4,131.1,560,131.5,559.5,131.5z"/>
	<g>
		<circle class="st9" cx="574.6" cy="116.3" r="2"/>
		<rect x="530" y="113.3" class="st9" width="18.1" height="6"/>
		<path class="st9" d="M577.4,107.2h-38.2l-10.3,0c-3.3,0-5.9,2.7-5.9,6v10.1h60.3v-10.1C583.3,109.9,580.6,107.2,577.4,107.2z
			 M550.1,121.3H528v-10.1h22.1V121.3z M555.2,119.3h-1c-0.6,0-1-0.4-1-1s0.5-1,1-1h1c0.6,0,1,0.4,1,1
			C556.2,118.8,555.7,119.3,555.2,119.3z M555.2,115.3h-1c-0.6,0-1-0.4-1-1s0.5-1,1-1h1c0.6,0,1,0.4,1,1
			C556.2,114.8,555.7,115.3,555.2,115.3z M560.2,119.3h-1c-0.6,0-1-0.4-1-1s0.5-1,1-1h1c0.6,0,1,0.4,1,1
			C561.2,118.8,560.7,119.3,560.2,119.3z M560.2,115.3h-1c-0.6,0-1-0.4-1-1s0.5-1,1-1h1c0.6,0,1,0.4,1,1
			C561.2,114.8,560.7,115.3,560.2,115.3z M564.1,119.3c-0.6,0-1-0.4-1-1s0.5-1,1-1c0.6,0,1,0.4,1,1
			C565.1,118.8,564.6,119.3,564.1,119.3z M564.1,115.3c-0.6,0-1-0.4-1-1s0.5-1,1-1c0.6,0,1,0.4,1,1
			C565.1,114.8,564.6,115.3,564.1,115.3z M567.9,119.3c-0.6,0-1-0.4-1-1s0.5-1,1-1c0.6,0,1,0.4,1,1
			C568.9,118.8,568.4,119.3,567.9,119.3z M567.9,115.3c-0.6,0-1-0.4-1-1s0.5-1,1-1c0.6,0,1,0.4,1,1
			C568.9,114.8,568.4,115.3,567.9,115.3z M574.6,120.3c-2.2,0-4-1.8-4-4c0-2.2,1.8-4,4-4s4,1.8,4,4
			C578.7,118.5,576.9,120.3,574.6,120.3z"/>
	</g>
</g>
<g>
	<path class="st9" d="M942.6,96.9c1.3,0,2.4-1.1,2.4-2.4s-1.1-2.4-2.4-2.4s-2.4,1.1-2.4,2.4S941.3,96.9,942.6,96.9z"/>
	<path class="st9" d="M925,84.9c1.3,0,2.4-1.1,2.4-2.4c0-1.3-1.1-2.4-2.4-2.4s-2.4,1.1-2.4,2.4S923.7,84.9,925,84.9z"/>
	<path class="st9" d="M925,104c-1.3,0-2.4,1.1-2.4,2.4c0,1.3,1.1,2.4,2.4,2.4s2.4-1.1,2.4-2.4C927.4,105.1,926.4,104,925,104z"/>
	<path class="st9" d="M965.9,67.3c-0.3-0.3-0.6-0.4-0.9-0.4h-3.4v-3.4c0-0.3-0.1-0.6-0.4-0.9c-0.3-0.3-0.6-0.4-0.9-0.4h-3.1V59
		c0-0.3-0.1-0.6-0.4-0.9c-0.3-0.3-0.6-0.4-0.9-0.4h-36.6c-0.3,0-0.6,0.1-0.9,0.4c0,0-0.1,0-0.1,0l-8.8,8.8c-0.3,0.2-0.4,0.5-0.4,0.9
		l0,0v52.8c0,0.3,0.1,0.6,0.4,0.9c0.2,0.2,0.5,0.4,0.9,0.4h3.1v3.1c0,0.3,0.1,0.7,0.4,0.9c0.2,0.2,0.4,0.3,0.7,0.4
		c0.1,0,0.1,0,0.2,0h3.4v3.4c0,0.3,0.1,0.6,0.4,0.9c0.2,0.2,0.4,0.3,0.7,0.4c0.1,0,0.1,0,0.2,0H965c0.3,0,0.7-0.1,0.9-0.4
		c0.2-0.3,0.4-0.6,0.4-0.9V68.1C966.3,67.8,966.2,67.5,965.9,67.3z M925,76.9c3.1,0,5.6,2.5,5.6,5.6c0,0.3,0,0.5,0,0.8l8.4,7
		c1-0.9,2.2-1.4,3.6-1.4c3.1,0,5.6,2.5,5.6,5.6s-2.5,5.6-5.6,5.6c-1.4,0-2.7-0.5-3.7-1.4l-8.4,7c0,0.3,0.1,0.5,0.1,0.8
		c0,3.1-2.5,5.6-5.6,5.6s-5.6-2.5-5.6-5.6s2.5-5.6,5.6-5.6c1.6,0,3.1,0.7,4.1,1.8l8.1-6.7c-0.1-0.5-0.2-0.9-0.2-1.4
		c0-0.5,0.1-1,0.2-1.5l-8.1-6.7c-1,1.1-2.5,1.8-4.1,1.8c-3.1,0-5.6-2.5-5.6-5.6C919.5,79.4,922,76.9,925,76.9z M911.8,69.2l8.9-8.9
		V68c0,0.3-0.1,0.6-0.3,0.8c-0.2,0.2-0.5,0.3-0.8,0.3L911.8,69.2L911.8,69.2z M916.2,123.8V122h39.8c0.3,0,0.7-0.1,0.9-0.4
		c0.2-0.3,0.4-0.6,0.4-0.9v-56h1.8v59.1C959.1,123.8,916.2,123.8,916.2,123.8z M963.7,128.5h-42.9v-2.2h39.5c0.3,0,0.6-0.1,0.9-0.4
		c0.2-0.3,0.4-0.6,0.4-0.9V69.4h2.1L963.7,128.5L963.7,128.5z"/>
</g>
<text transform="matrix(1 0 0 1 182.7774 109.2823)" class="st9 st11 st12 st13">Papier</text>
<text transform="matrix(1 0 0 1 611.8345 109.2823)" class="st9 st11 st12 st13">Hybride</text>
<text transform="matrix(1 0 0 1 995.1432 109.2823)" class="st9 st11 st12 st13">Numérique</text>
</svg>
