<?xml version="1.0" encoding="utf-8"?>
<!-- Generator: Adobe Illustrator 21.0.2, SVG Export Plug-In . SVG Version: 6.00 Build 0)  -->
<svg version="1.1" id="Layer_1" xmlns="http://www.w3.org/2000/svg" xmlns:xlink="http://www.w3.org/1999/xlink" x="0px" y="0px"
	 viewBox="0 0 575 401" style="enable-background:new 0 0 575 401;" xml:space="preserve">
	<defs>
	<style>
		@import url('https://fonts.googleapis.com/css?family=Poppins:400,600');
	</style>
</defs>

	<style type="text/css">
	.st0{fill:#2E87BC;}
	.st1{fill:#1D5572;}
	.st2{fill:#3A6A86;}
	.st3{fill:#305568;}
	.st4{fill:#3F748E;}
	.st5{fill:#047866;}
	.st6{fill:#0A876F;}
	.st7{fill:#FFFFFF;stroke:#FFFFFF;stroke-width:0.6241;stroke-miterlimit:10;}
	.st8{fill:#FFFFFF;stroke:#FFFFFF;stroke-width:0.9362;stroke-miterlimit:10;}
	.st9{fill:#FFFFFF;}
	.st10{fill:#FFFFFF;stroke:#FFFFFF;stroke-width:1.2482;stroke-linecap:round;stroke-linejoin:round;stroke-miterlimit:10;}
	.st11{font-family:'Poppins', sans-serif;}
	.st12{font-size:28.1043px;}
	.st13{font-weight:600;}
</style>
<g>
	<polygon class="st0" points="0,102.7 0,0 575,0 575,102.7 288,144.8 	"/>
	<polygon class="st1" points="0,102.7 0,100.9 288,143 575,100.9 575,102.7 288,144.8 287.1,144.8 	"/>
</g>
<g>
	<polygon class="st2" points="0,245.5 0,102.7 288,144.8 575,102.7 575,245.5 288,287.6 	"/>
	<polygon class="st3" points="0,245.5 0,243.7 288,285.8 575,243.7 575,245.5 288,287.6 287.1,287.6 	"/>
	<polygon class="st4" points="0,104.5 0,102.7 288,144.8 575,102.7 575,104.5 288,146.6 287.1,146.6 	"/>
</g>
<g>
	<polygon class="st5" points="0,401 0,245.5 288,287.6 575,245.5 575,401 	"/>
	<polygon class="st6" points="0,247.3 0,245.5 288,287.6 575,245.5 575,247.3 288,289.5 287.1,289.4 	"/>
</g>
<g>
	<path class="st7" d="M172.7,42.5h15.8v5.3h-15.8V42.5z M170.9,49.6h19.3v-8.8h-19.3L170.9,49.6L170.9,49.6z"/>
	<path class="st7" d="M211.2,46.9c-1,0-1.8-0.8-1.8-1.8s0.8-1.8,1.8-1.8s1.8,0.8,1.8,1.8S212.2,46.9,211.2,46.9z M211.2,41.7
		c-1.9,0-3.5,1.6-3.5,3.5s1.6,3.5,3.5,3.5c1.9,0,3.5-1.6,3.5-3.5S213.1,41.7,211.2,41.7z"/>
	<path class="st7" d="M194.6,42.5h-0.9c-0.5,0-0.9,0.4-0.9,0.9s0.4,0.9,0.9,0.9h0.9c0.5,0,0.9-0.4,0.9-0.9
		C195.4,42.9,195,42.5,194.6,42.5"/>
	<path class="st7" d="M194.6,46h-0.9c-0.5,0-0.9,0.4-0.9,0.9c0,0.5,0.4,0.9,0.9,0.9h0.9c0.5,0,0.9-0.4,0.9-0.9
		C195.4,46.4,195,46,194.6,46"/>
	<path class="st7" d="M198.9,42.5h-0.9c-0.5,0-0.9,0.4-0.9,0.9s0.4,0.9,0.9,0.9h0.9c0.5,0,0.9-0.4,0.9-0.9S199.4,42.5,198.9,42.5"/>
	<path class="st7" d="M198.9,46h-0.9c-0.5,0-0.9,0.4-0.9,0.9c0,0.5,0.4,0.9,0.9,0.9h0.9c0.5,0,0.9-0.4,0.9-0.9
		C199.8,46.4,199.4,46,198.9,46"/>
	<path class="st8" d="M169.1,63.7l-14.5-2.9c-0.5-0.1-0.9,0.2-1,0.7c-0.1,0.5,0.2,0.9,0.7,1l14.7,2.9"/>
	<path class="st8" d="M170.9,74.8l-16.4-3.3c-0.5-0.1-0.9,0.2-1,0.7c-0.1,0.5,0.2,0.9,0.7,1l16.5,3.3"/>
	<path class="st8" d="M171.8,36.7l43.7-8.7c0.2,0,0.3,0,0.4,0.1s0.2,0.2,0.2,0.4c0.1,0.3-0.1,0.6-0.4,0.7l-35.1,7"/>
	<g>
		<path class="st9" d="M196.3,65.4C196.3,65.4,196.3,65.4,196.3,65.4l0.1-1.8h-7.9v1.7c0,0,0,0.1,0.1,0.1
			C188.5,65.4,196.3,65.4,196.3,65.4z"/>
		<path class="st9" d="M196.3,75.9C196.3,75.9,196.3,75.9,196.3,75.9l0.1-1.8h-7.9v1.7c0,0,0,0.1,0.1,0.1H196.3z"/>
		<path class="st9" d="M206.3,63.7h-8.2v1.7c0,1-0.8,1.8-1.8,1.8h-7.8c-1,0-1.8-0.8-1.8-1.8v-1.7h-7.4c-0.8,0-1.4,0.6-1.4,1.4v7.4
			h29.8v-7.4C207.7,64.3,207.1,63.7,206.3,63.7z"/>
		<path class="st9" d="M198.1,75.9c0,1-0.8,1.8-1.8,1.8h-7.8c-1,0-1.8-0.8-1.8-1.8v-1.7h-8.8v8.9h29.8v-8.9h-9.6V75.9z"/>
		<path class="st9" d="M177.9,93.8h29.8v-9h-29.8V93.8z M187.6,86.5h9.6c0.5,0,0.9,0.4,0.9,0.9s-0.4,0.9-0.9,0.9h-9.6
			c-0.5,0-0.9-0.4-0.9-0.9C186.7,86.9,187.1,86.5,187.6,86.5z"/>
		<path class="st9" d="M177.9,104.4h29.8v-8.9h-29.8V104.4z M187.6,96.9h9.6c0.5,0,0.9,0.4,0.9,0.9s-0.4,0.9-0.9,0.9h-9.6
			c-0.5,0-0.9-0.4-0.9-0.9C186.7,97.3,187.1,96.9,187.6,96.9z"/>
		<path class="st9" d="M213.9,36.1h-33.2l-8.9,0c-2.7,0-4.9,2.2-4.9,4.9v63.4h9V65.1c0-1.9,1.6-3.5,3.5-3.5h27
			c1.9,0,3.5,1.6,3.5,3.5v39.3h9V41C218.8,38.3,216.6,36.1,213.9,36.1z M198.9,58.7h-13.1c-0.7,0-1.2-0.5-1.2-1.2s0.5-1.2,1.2-1.2
			h13.1c0.7,0,1.2,0.5,1.2,1.2C200.1,58.2,199.6,58.7,198.9,58.7z M217,52h-48.4V41c0-1.7,1.4-3.1,3.1-3.1h42.2
			c1.7,0,3.1,1.4,3.1,3.1L217,52L217,52z"/>
	</g>
</g>
<g>
	<path class="st10" d="M173.6,209.5l40.3-8.1c0.5-0.1,0.9-0.6,0.8-1.2c-0.1-0.5-0.6-0.9-1.2-0.8l-50.2,10"/>
	<path class="st10" d="M188.2,157.3v-6h-1v6c0.2,0,0.3,0,0.5,0C187.8,157.3,188,157.3,188.2,157.3z"/>
	<path class="st10" d="M180.5,159l-3-5.2l-0.9,0.5l3,5.2C179.9,159.4,180.2,159.2,180.5,159z"/>
	<path class="st10" d="M169.4,161.8l-0.3,0.4l5.2,3c0.2-0.3,0.3-0.6,0.5-0.9l-5.2-3L169.4,161.8z"/>
	<path class="st10" d="M205.9,182.9l0.3-0.4l-5.2-3c-0.2,0.3-0.3,0.6-0.5,0.9l5.2,3L205.9,182.9z"/>
	<path class="st10" d="M172.5,172.4c0-0.2,0-0.3,0-0.5h-6v1h6C172.5,172.7,172.5,172.5,172.5,172.4z"/>
	<path class="st10" d="M208.8,171.9h-6c0,0.2,0,0.3,0,0.5s0,0.3,0,0.5h6V171.9z"/>
	<path class="st10" d="M169.4,182.9l0.3,0.4l5.2-3c-0.2-0.3-0.4-0.6-0.5-0.9l-5.2,3L169.4,182.9z"/>
	<path class="st10" d="M205.7,161.4l-5.2,3c0.2,0.3,0.4,0.6,0.5,0.9l5.2-3L205.7,161.4z"/>
	<path class="st10" d="M197.8,153.8l-3,5.2c0.3,0.2,0.6,0.3,0.9,0.5l3-5.2L197.8,153.8z"/>
	<path class="st10" d="M181.2,181.2c-3-2.2-4.6-5.8-4.3-9.5c0.4-5.1,4.4-9.2,9.5-9.8c3.1-0.3,6.1,0.6,8.4,2.7c2.3,2,3.6,5,3.6,8
		c0,3.4-1.6,6.6-4.3,8.6c-0.5,0.4-0.8,0.9-1,1.6h-5v-10.4h-1v10.4h-5C182,182.1,181.7,181.6,181.2,181.2z M191.4,193v-1
		c1.6-0.6,2.7-2.1,2.7-3.8v-4.9c0-0.5,0.2-1,0.6-1.3c3-2.3,4.7-5.7,4.7-9.4c0-3.4-1.4-6.6-3.9-8.8c-2.5-2.3-5.8-3.3-9.2-2.9
		c-5.6,0.6-10,5.1-10.4,10.7c-0.3,4.1,1.4,8,4.7,10.5c0.4,0.3,0.6,0.7,0.6,1.3v4.9c0,1.7,1.1,3.2,2.7,3.8v1c0,1.2,0.9,2.1,2.1,2.1
		h3.4C190.5,195.1,191.4,194.2,191.4,193z"/>
	<path class="st9" d="M157.4,226.8v15.5h60.3v-15.5H157.4z M193.9,233h-14.1c-0.5,0-0.9-0.4-0.9-0.9c0-0.5,0.4-0.9,0.9-0.9h14.1
		c0.5,0,0.9,0.4,0.9,0.9S194.4,233,193.9,233z"/>
	<g>
		<circle class="st9" cx="209" cy="217.8" r="2"/>
		<rect x="164.4" y="214.8" class="st9" width="18.1" height="6"/>
		<path class="st9" d="M211.8,208.7h-38.2l-10.3,0c-3.3,0-5.9,2.7-5.9,6v10.1h60.3v-10.1C217.7,211.4,215,208.7,211.8,208.7z
			 M184.5,222.8h-22.1v-10.1h22.1V222.8z M189.6,220.8h-1c-0.6,0-1-0.4-1-1s0.4-1,1-1h1c0.6,0,1,0.4,1,1
			C190.6,220.3,190.1,220.8,189.6,220.8z M189.6,216.8h-1c-0.6,0-1-0.4-1-1c0-0.6,0.4-1,1-1h1c0.6,0,1,0.4,1,1
			C190.6,216.3,190.1,216.8,189.6,216.8z M194.6,220.8h-1c-0.6,0-1-0.4-1-1s0.4-1,1-1h1c0.6,0,1,0.4,1,1
			C195.6,220.3,195.1,220.8,194.6,220.8z M194.6,216.8h-1c-0.6,0-1-0.4-1-1c0-0.6,0.4-1,1-1h1c0.6,0,1,0.4,1,1
			C195.6,216.3,195.1,216.8,194.6,216.8z M198.5,220.8c-0.6,0-1-0.4-1-1s0.4-1,1-1s1,0.4,1,1C199.5,220.3,199,220.8,198.5,220.8z
			 M198.5,216.8c-0.6,0-1-0.4-1-1c0-0.6,0.4-1,1-1s1,0.4,1,1C199.5,216.3,199,216.8,198.5,216.8z M202.3,220.8c-0.6,0-1-0.4-1-1
			s0.4-1,1-1s1,0.4,1,1C203.3,220.3,202.8,220.8,202.3,220.8z M202.3,216.8c-0.6,0-1-0.4-1-1c0-0.6,0.4-1,1-1s1,0.4,1,1
			C203.3,216.3,202.8,216.8,202.3,216.8z M209,221.8c-2.2,0-4-1.8-4-4c0-2.2,1.8-4,4-4c2.2,0,4,1.8,4,4S211.3,221.8,209,221.8z"/>
	</g>
</g>
<g>
	<path class="st9" d="M193.7,344.6c1.3,0,2.4-1.1,2.4-2.4s-1.1-2.4-2.4-2.4s-2.4,1.1-2.4,2.4S192.3,344.6,193.7,344.6z"/>
	<path class="st9" d="M176.1,332.7c1.3,0,2.4-1.1,2.4-2.4s-1.1-2.4-2.4-2.4c-1.3,0-2.4,1.1-2.4,2.4
		C173.7,331.6,174.8,332.7,176.1,332.7z"/>
	<path class="st9" d="M176.1,351.8c-1.3,0-2.4,1.1-2.4,2.4s1.1,2.4,2.4,2.4c1.3,0,2.4-1.1,2.4-2.4
		C178.5,352.9,177.5,351.8,176.1,351.8z"/>
	<path class="st9" d="M217,315c-0.3-0.3-0.6-0.4-0.9-0.4h-3.4v-3.4c0-0.3-0.1-0.6-0.4-0.9c-0.3-0.3-0.6-0.4-0.9-0.4h-3.1v-3.1
		c0-0.3-0.1-0.6-0.4-0.9c-0.3-0.3-0.6-0.4-0.9-0.4h-36.6c-0.3,0-0.6,0.1-0.9,0.4c0,0-0.1,0-0.1,0l-8.8,8.8c-0.3,0.2-0.4,0.5-0.4,0.9
		l0,0v52.8c0,0.3,0.1,0.6,0.4,0.9c0.2,0.2,0.5,0.4,0.9,0.4h3.1v3.1c0,0.3,0.1,0.7,0.4,0.9c0.2,0.2,0.4,0.3,0.7,0.4
		c0.1,0,0.1,0,0.2,0h3.4v3.4c0,0.3,0.1,0.6,0.4,0.9c0.2,0.2,0.4,0.3,0.7,0.4c0.1,0,0.1,0,0.2,0h45.5c0.3,0,0.7-0.1,0.9-0.4
		c0.2-0.3,0.4-0.6,0.4-0.9v-61.7C217.4,315.6,217.3,315.3,217,315z M176.1,324.7c3.1,0,5.6,2.5,5.6,5.6c0,0.3,0,0.5-0.1,0.8l8.4,7
		c1-0.9,2.2-1.4,3.6-1.4c3.1,0,5.6,2.5,5.6,5.6c0,3.1-2.5,5.6-5.6,5.6c-1.4,0-2.7-0.5-3.7-1.4l-8.4,7c0,0.3,0.1,0.5,0.1,0.8
		c0,3.1-2.5,5.6-5.6,5.6s-5.6-2.5-5.6-5.6s2.5-5.6,5.6-5.6c1.6,0,3.1,0.7,4.1,1.8l8.1-6.7c-0.1-0.5-0.2-0.9-0.2-1.4
		c0-0.5,0.1-1,0.2-1.5l-8.1-6.7c-1,1.1-2.5,1.8-4.1,1.8c-3.1,0-5.6-2.5-5.6-5.6C170.5,327.2,173.1,324.7,176.1,324.7z M162.8,316.9
		l8.9-8.9v7.8c0,0.3-0.1,0.6-0.3,0.8c-0.2,0.2-0.5,0.3-0.8,0.3H162.8z M167.2,371.6v-1.8H207c0.3,0,0.7-0.1,0.9-0.4
		c0.2-0.3,0.4-0.6,0.4-0.9v-56h1.8v59.1L167.2,371.6L167.2,371.6z M214.8,376.3h-42.9v-2.2h39.5c0.3,0,0.6-0.1,0.9-0.4
		c0.2-0.3,0.4-0.6,0.4-0.9v-55.7h2.1L214.8,376.3L214.8,376.3z"/>
</g>
<text transform="matrix(1 0 0 1 246.2288 80.7286)" class="st9 st11 st12 st13">Papier</text>
<text transform="matrix(1 0 0 1 246.2288 220.7878)" class="st9 st11 st12 st13">Hybride</text>
<text transform="matrix(1 0 0 1 246.2288 354.1615)" class="st9 st11 st12 st13">Numérique</text>
</svg>
