<svg id="Layer_1" data-name="Layer 1" xmlns="http://www.w3.org/2000/svg" viewBox="0 0 575 401"><title>echelle-fr_v2</title><polygon points="0 102.7 0 0 575 0 575 102.7 288 144.8 0 102.7" style="fill:#2e87bc"/><polygon points="0 102.7 0 100.9 288 143 575 100.9 575 102.7 288 144.8 287.1 144.8 0 102.7" style="fill:#1d5572"/><polygon points="0 245.5 0 102.7 288 144.8 575 102.7 575 245.5 288 287.6 0 245.5" style="fill:#3a6a86"/><polygon points="0 245.5 0 243.7 288 285.8 575 243.7 575 245.5 288 287.6 287.1 287.6 0 245.5" style="fill:#305568"/><polygon points="0 104.5 0 102.7 288 144.8 575 102.7 575 104.5 288 146.6 287.1 146.6 0 104.5" style="fill:#3f748e"/><polygon points="0 401 0 245.5 288 287.6 575 245.5 575 401 0 401" style="fill:#047866"/><polygon points="0 247.3 0 245.5 288 287.6 575 245.5 575 247.3 288 289.5 287.1 289.4 0 247.3" style="fill:#0a876f"/><path d="M172.7,42.5h15.8v5.3H172.7Zm-1.8,7.1h19.3V40.8H170.9v8.8Z" style="fill:#fff;stroke:#fff;stroke-miterlimit:10;stroke-width:0.6241000294685364px"/><path d="M211.2,46.9a1.8,1.8,0,1,1,1.8-1.8A1.79,1.79,0,0,1,211.2,46.9Zm0-5.2a3.5,3.5,0,1,0,3.5,3.5A3.54,3.54,0,0,0,211.2,41.7Z" style="fill:#fff;stroke:#fff;stroke-miterlimit:10;stroke-width:0.6241000294685364px"/><path d="M194.6,42.5h-.9a.9.9,0,0,0,0,1.8h.9a.9.9,0,0,0,.9-.9,1.06,1.06,0,0,0-.9-.9" style="fill:#fff;stroke:#fff;stroke-miterlimit:10;stroke-width:0.6241000294685364px"/><path d="M194.6,46h-.9a.9.9,0,0,0,0,1.8h.9a.9.9,0,0,0,.9-.9,1.06,1.06,0,0,0-.9-.9" style="fill:#fff;stroke:#fff;stroke-miterlimit:10;stroke-width:0.6241000294685364px"/><path d="M198.9,42.5H198a.9.9,0,0,0,0,1.8h.9a.9.9,0,0,0,0-1.8" style="fill:#fff;stroke:#fff;stroke-miterlimit:10;stroke-width:0.6241000294685364px"/><path d="M198.9,46H198a.9.9,0,0,0,0,1.8h.9a.9.9,0,0,0,0-1.8" style="fill:#fff;stroke:#fff;stroke-miterlimit:10;stroke-width:0.6241000294685364px"/><path d="M169.1,63.7l-14.5-2.9a.86.86,0,0,0-.3,1.7L169,65.4" style="fill:#fff;stroke:#fff;stroke-miterlimit:10;stroke-width:0.9362000226974487px"/><path d="M170.9,74.8l-16.4-3.3a.86.86,0,0,0-.3,1.7l16.5,3.3" style="fill:#fff;stroke:#fff;stroke-miterlimit:10;stroke-width:0.9362000226974487px"/><path d="M171.8,36.7,215.5,28c.2,0,.3,0,.4.1a.52.52,0,0,1,.2.4.57.57,0,0,1-.4.7l-35.1,7" style="fill:#fff;stroke:#fff;stroke-miterlimit:10;stroke-width:0.9362000226974487px"/><path d="M196.3,65.4h0l.1-1.8h-7.9v1.7a.1.1,0,0,0,.1.1Z" style="fill:#fff"/><path d="M196.3,75.9h0l.1-1.8h-7.9v1.7a.1.1,0,0,0,.1.1Z" style="fill:#fff"/><path d="M206.3,63.7h-8.2v1.7a1.79,1.79,0,0,1-1.8,1.8h-7.8a1.79,1.79,0,0,1-1.8-1.8V63.7h-7.4a1.37,1.37,0,0,0-1.4,1.4v7.4h29.8V65.1A1.37,1.37,0,0,0,206.3,63.7Z" style="fill:#fff"/><path d="M198.1,75.9a1.79,1.79,0,0,1-1.8,1.8h-7.8a1.79,1.79,0,0,1-1.8-1.8V74.2h-8.8v8.9h29.8V74.2h-9.6v1.7Z" style="fill:#fff"/><path d="M177.9,93.8h29.8v-9H177.9Zm9.7-7.3h9.6a.9.9,0,0,1,0,1.8h-9.6a.9.9,0,0,1,0-1.8Z" style="fill:#fff"/><path d="M177.9,104.4h29.8V95.5H177.9Zm9.7-7.5h9.6a.9.9,0,0,1,0,1.8h-9.6a.9.9,0,0,1,0-1.8Z" style="fill:#fff"/><path d="M213.9,36.1H171.8a4.91,4.91,0,0,0-4.9,4.9v63.4h9V65.1a3.54,3.54,0,0,1,3.5-3.5h27a3.54,3.54,0,0,1,3.5,3.5v39.3h9V41A5.06,5.06,0,0,0,213.9,36.1Zm-15,22.6H185.8a1.2,1.2,0,0,1,0-2.4h13.1a1.2,1.2,0,0,1,0,2.4ZM217,52H168.6V41a3.12,3.12,0,0,1,3.1-3.1h42.2A3.12,3.12,0,0,1,217,41V52Z" style="fill:#fff"/><path d="M173.6,209.5l40.3-8.1a1,1,0,0,0-.4-2l-50.2,10" style="fill:#fff;stroke:#fff;stroke-linecap:round;stroke-linejoin:round;stroke-width:1.2482000589370728px"/><path d="M188.2,157.3v-6h-1v6h1Z" style="fill:#fff;stroke:#fff;stroke-linecap:round;stroke-linejoin:round;stroke-width:1.2482000589370728px"/><path d="M180.5,159l-3-5.2-.9.5,3,5.2A4.05,4.05,0,0,0,180.5,159Z" style="fill:#fff;stroke:#fff;stroke-linecap:round;stroke-linejoin:round;stroke-width:1.2482000589370728px"/><path d="M169.4,161.8l-.3.4,5.2,3c.2-.3.3-.6.5-.9l-5.2-3Z" style="fill:#fff;stroke:#fff;stroke-linecap:round;stroke-linejoin:round;stroke-width:1.2482000589370728px"/><path d="M205.9,182.9l.3-.4-5.2-3c-.2.3-.3.6-.5.9l5.2,3Z" style="fill:#fff;stroke:#fff;stroke-linecap:round;stroke-linejoin:round;stroke-width:1.2482000589370728px"/><path d="M172.5,172.4v-.5h-6v1h6Z" style="fill:#fff;stroke:#fff;stroke-linecap:round;stroke-linejoin:round;stroke-width:1.2482000589370728px"/><path d="M208.8,171.9h-6v1h6Z" style="fill:#fff;stroke:#fff;stroke-linecap:round;stroke-linejoin:round;stroke-width:1.2482000589370728px"/><path d="M169.4,182.9l.3.4,5.2-3a4.05,4.05,0,0,1-.5-.9l-5.2,3Z" style="fill:#fff;stroke:#fff;stroke-linecap:round;stroke-linejoin:round;stroke-width:1.2482000589370728px"/><path d="M205.7,161.4l-5.2,3a4.05,4.05,0,0,1,.5.9l5.2-3Z" style="fill:#fff;stroke:#fff;stroke-linecap:round;stroke-linejoin:round;stroke-width:1.2482000589370728px"/><path d="M197.8,153.8l-3,5.2c.3.2.6.3.9.5l3-5.2Z" style="fill:#fff;stroke:#fff;stroke-linecap:round;stroke-linejoin:round;stroke-width:1.2482000589370728px"/><path d="M181.2,181.2a10.75,10.75,0,1,1,12.9,0,2.94,2.94,0,0,0-1,1.6h-5V172.4h-1v10.4h-5A2.36,2.36,0,0,0,181.2,181.2ZM191.4,193v-1a4.09,4.09,0,0,0,2.7-3.8v-4.9a1.61,1.61,0,0,1,.6-1.3,11.81,11.81,0,0,0,.8-18.2,11.43,11.43,0,0,0-9.2-2.9,11.64,11.64,0,0,0-10.4,10.7,11.94,11.94,0,0,0,4.7,10.5,1.49,1.49,0,0,1,.6,1.3v4.9a4.09,4.09,0,0,0,2.7,3.8v1a2.05,2.05,0,0,0,2.1,2.1h3.4A2.19,2.19,0,0,0,191.4,193Z" style="fill:#fff;stroke:#fff;stroke-linecap:round;stroke-linejoin:round;stroke-width:1.2482000589370728px"/><path d="M157.4,226.8v15.5h60.3V226.8Zm36.5,6.2H179.8a.9.9,0,1,1,0-1.8h14.1a.9.9,0,0,1,0,1.8Z" style="fill:#fff"/><circle cx="209" cy="217.8" r="2" style="fill:#fff"/><rect x="164.4" y="214.8" width="18.1" height="6" style="fill:#fff"/><path d="M211.8,208.7H163.3a5.93,5.93,0,0,0-5.9,6v10.1h60.3V214.7A6,6,0,0,0,211.8,208.7Zm-27.3,14.1H162.4V212.7h22.1Zm5.1-2h-1a1,1,0,0,1,0-2h1a.94.94,0,0,1,1,1A1.08,1.08,0,0,1,189.6,220.8Zm0-4h-1a1,1,0,0,1,0-2h1a.94.94,0,0,1,1,1A1.08,1.08,0,0,1,189.6,216.8Zm5,4h-1a1,1,0,0,1,0-2h1a.94.94,0,0,1,1,1A1.08,1.08,0,0,1,194.6,220.8Zm0-4h-1a1,1,0,0,1,0-2h1a.94.94,0,0,1,1,1A1.08,1.08,0,0,1,194.6,216.8Zm3.9,4a1,1,0,1,1,1-1A1.08,1.08,0,0,1,198.5,220.8Zm0-4a1,1,0,1,1,1-1A1.08,1.08,0,0,1,198.5,216.8Zm3.8,4a1,1,0,1,1,1-1A1.08,1.08,0,0,1,202.3,220.8Zm0-4a1,1,0,1,1,1-1A1.08,1.08,0,0,1,202.3,216.8Zm6.7,5a4,4,0,1,1,4-4A4,4,0,0,1,209,221.8Z" style="fill:#fff"/><path d="M193.7,344.6a2.4,2.4,0,1,0-2.4-2.4A2.37,2.37,0,0,0,193.7,344.6Z" style="fill:#fff"/><path d="M176.1,332.7a2.4,2.4,0,1,0-2.4-2.4A2.43,2.43,0,0,0,176.1,332.7Z" style="fill:#fff"/><path d="M176.1,351.8a2.4,2.4,0,1,0,2.4,2.4A2.37,2.37,0,0,0,176.1,351.8Z" style="fill:#fff"/><path d="M217,315a1.22,1.22,0,0,0-.9-.4h-3.4v-3.4a1.37,1.37,0,0,0-1.3-1.3h-3.1v-3.1a1.37,1.37,0,0,0-1.3-1.3H170.4a1.22,1.22,0,0,0-.9.4h-.1l-8.8,8.8a1,1,0,0,0-.4.9h0v52.8a1.22,1.22,0,0,0,.4.9,1.27,1.27,0,0,0,.9.4h3.1v3.1a1.09,1.09,0,0,0,.4.9,1.61,1.61,0,0,0,.7.4h3.6v3.4a1.22,1.22,0,0,0,.4.9,1.61,1.61,0,0,0,.7.4h45.7a1.09,1.09,0,0,0,.9-.4,1.8,1.8,0,0,0,.4-.9V315.8A1.2,1.2,0,0,0,217,315Zm-40.9,9.7a5.59,5.59,0,0,1,5.6,5.6,2.2,2.2,0,0,1-.1.8l8.4,7a5.24,5.24,0,0,1,3.6-1.4,5.6,5.6,0,1,1,0,11.2,5.49,5.49,0,0,1-3.7-1.4l-8.4,7c0,.3.1.5.1.8a5.62,5.62,0,1,1-1.5-3.8l8.1-6.7a6.75,6.75,0,0,1-.2-1.4,7.72,7.72,0,0,1,.2-1.5l-8.1-6.7a5.59,5.59,0,0,1-9.7-3.8A5.83,5.83,0,0,1,176.1,324.7Zm-13.3-7.8,8.9-8.9v7.8a1,1,0,0,1-1.1,1.1h-7.8Zm4.4,54.7v-1.8H207a1.09,1.09,0,0,0,.9-.4,1.8,1.8,0,0,0,.4-.9v-56h1.8v59.1Zm47.6,4.7H171.9v-2.2h39.5a1.22,1.22,0,0,0,.9-.4,1.8,1.8,0,0,0,.4-.9V317.1h2.1v59.2Z" style="fill:#fff"/><text transform="translate(246.23 80.73)" style="isolation:isolate;font-size:28.104299545288086px;fill:#fff;font-family:Poppins-SemiBold, Poppins;font-weight:700">Papier</text><text transform="translate(246.23 220.79)" style="isolation:isolate;font-size:28.104299545288086px;fill:#fff;font-family:Poppins-SemiBold, Poppins;font-weight:700">Hybride</text><g style="isolation:isolate"><path d="M261.18,334.49h4v19.67h-4l-8.88-13.6v13.6h-4V334.49h4l8.88,13.6Z" style="fill:#fff"/><path d="M280.09,338.59h4v15.57h-4V351.8a5.19,5.19,0,0,1-4.86,2.56,5.74,5.74,0,0,1-4.33-1.76,6.75,6.75,0,0,1-1.69-4.88v-9.13h3.93v8.57a3.94,3.94,0,0,0,.93,2.81,3.31,3.31,0,0,0,2.53,1,3.35,3.35,0,0,0,2.54-1,3.91,3.91,0,0,0,.94-2.81Z" style="fill:#fff"/><path d="M292.23,338.59v2.33a5.17,5.17,0,0,1,4.83-2.56,6.14,6.14,0,0,1,3.16.81,5.47,5.47,0,0,1,2.15,2.33,6.07,6.07,0,0,1,5.42-3.15,6,6,0,0,1,4.48,1.74A6.71,6.71,0,0,1,314,345v9.16h-3.93v-8.6a3.89,3.89,0,0,0-.93-2.8,3.34,3.34,0,0,0-2.53-1,3.38,3.38,0,0,0-2.54,1,3.85,3.85,0,0,0-.94,2.8v8.6h-3.93v-8.6a3.89,3.89,0,0,0-.93-2.8,3.34,3.34,0,0,0-2.53-1,3.39,3.39,0,0,0-2.54,1,3.85,3.85,0,0,0-.94,2.8v8.6h-4V338.59Z" style="fill:#fff"/><path d="M324.64,354.39a7.36,7.36,0,0,1-5.54-2.21,8,8,0,0,1-2.14-5.83,7.9,7.9,0,0,1,2.15-5.8,7.48,7.48,0,0,1,5.56-2.18,7.73,7.73,0,0,1,5.61,2.12,7.52,7.52,0,0,1,2.19,5.66,9.7,9.7,0,0,1-.11,1.52H321a3.7,3.7,0,0,0,1.12,2.45,3.5,3.5,0,0,0,2.5.93,3.27,3.27,0,0,0,3-1.69h4.27a6.83,6.83,0,0,1-2.61,3.63A7.78,7.78,0,0,1,324.64,354.39Zm2.6-11.75a3.72,3.72,0,0,0-2.54-.93,3.51,3.51,0,0,0-2.49.93,3.93,3.93,0,0,0-1.19,2.47h7.36A3.39,3.39,0,0,0,327.24,342.64Zm.55-11.3v3.2l-6.46,3v-2.78Z" style="fill:#fff"/><path d="M339.56,338.59v2.75a4.94,4.94,0,0,1,4.55-3v4h-1a3.66,3.66,0,0,0-2.67.89,4.19,4.19,0,0,0-.9,3v7.81h-4V338.59Z" style="fill:#fff"/><path d="M351.31,334.63a2.4,2.4,0,1,1-.7-1.71A2.33,2.33,0,0,1,351.31,334.63Zm-4.38,19.53V338.59h4v15.57Z" style="fill:#fff"/><path d="M356.1,352.12a9,9,0,0,1,0-11.52,6.9,6.9,0,0,1,5.28-2.23,5.45,5.45,0,0,1,4.89,2.64v-2.42h3.93v23h-3.93v-10a5.52,5.52,0,0,1-4.92,2.84A6.84,6.84,0,0,1,356.1,352.12Zm8.92-2.39a5.18,5.18,0,0,0,0-6.72,4,4,0,0,0-5.78,0,4.49,4.49,0,0,0-1.22,3.34,4.55,4.55,0,0,0,1.24,3.37,4,4,0,0,0,5.76,0Z" style="fill:#fff"/><path d="M385.15,338.59h4v15.57h-4V351.8a5.19,5.19,0,0,1-4.86,2.56A5.74,5.74,0,0,1,376,352.6a6.75,6.75,0,0,1-1.69-4.88v-9.13h3.93v8.57a3.94,3.94,0,0,0,.93,2.81,3.31,3.31,0,0,0,2.53,1,3.35,3.35,0,0,0,2.54-1,3.91,3.91,0,0,0,.94-2.81Z" style="fill:#fff"/><path d="M399.9,354.39a7.36,7.36,0,0,1-5.54-2.21,8,8,0,0,1-2.14-5.83,7.9,7.9,0,0,1,2.15-5.8,7.48,7.48,0,0,1,5.56-2.18,7.73,7.73,0,0,1,5.61,2.12,7.52,7.52,0,0,1,2.19,5.66,9.7,9.7,0,0,1-.11,1.52H396.28a3.7,3.7,0,0,0,1.12,2.45,3.5,3.5,0,0,0,2.5.93,3.27,3.27,0,0,0,3-1.69h4.27a6.83,6.83,0,0,1-2.61,3.63A7.78,7.78,0,0,1,399.9,354.39Zm2.6-11.75a3.72,3.72,0,0,0-2.54-.93,3.51,3.51,0,0,0-2.49.93,3.93,3.93,0,0,0-1.19,2.47h7.36A3.39,3.39,0,0,0,402.5,342.64Z" style="fill:#fff"/></g></svg>