<?xml version="1.0" encoding="iso-8859-1"?>
<!-- Generator: Adobe Illustrator 21.1.0, SVG Export Plug-In . SVG Version: 6.00 Build 0)  -->
<svg version="1.1" id="Layer_1" xmlns="http://www.w3.org/2000/svg" xmlns:xlink="http://www.w3.org/1999/xlink" x="0px" y="0px"
	 viewBox="0 0 24 24" style="enable-background:new 0 0 24 24;" xml:space="preserve">
<path style="fill-rule:evenodd;clip-rule:evenodd;fill:#222222;" d="M11.999,0C5.384,0,0,5.384,0,12.001
	C0,18.616,5.384,24,11.999,24C18.616,24,24,18.616,24,12.001C24,5.384,18.616,0,11.999,0 M11.999,22.542
	c-2.687,0-5.135-1.02-6.998-2.681c0.017-0.024,0.047-0.036,0.063-0.063c1.435-2.456,4.092-3.982,6.934-3.982
	c2.843,0,5.5,1.527,6.935,3.98c0.017,0.029,0.043,0.043,0.061,0.069C17.132,21.523,14.686,22.542,11.999,22.542 M8.771,11.13
	c0-1.78,1.448-3.228,3.227-3.228c1.78,0,3.228,1.448,3.228,3.228c0,1.779-1.448,3.227-3.228,3.227
	C10.219,14.358,8.771,12.91,8.771,11.13 M20.027,18.817c-1.209-1.922-3.056-3.323-5.174-3.995c1.108-0.86,1.831-2.187,1.831-3.691
	c0-2.584-2.1-4.685-4.686-4.685c-2.583,0-4.685,2.101-4.685,4.685c0,1.504,0.725,2.833,1.833,3.691
	c-2.12,0.672-3.967,2.073-5.174,3.995c-1.565-1.841-2.515-4.218-2.515-6.816c0-5.813,4.73-10.543,10.541-10.543
	c5.813,0,10.543,4.73,10.543,10.543C22.542,14.599,21.59,16.976,20.027,18.817"/>
</svg>
