<?xml version="1.0" encoding="iso-8859-1"?>
<!-- Generator: Adobe Illustrator 21.1.0, SVG Export Plug-In . SVG Version: 6.00 Build 0)  -->
<svg version="1.1" id="Layer_1" xmlns="http://www.w3.org/2000/svg" xmlns:xlink="http://www.w3.org/1999/xlink" x="0px" y="0px"
	 viewBox="0 0 40 45" style="enable-background:new 0 0 40 45;" xml:space="preserve">
<path style="fill-rule:evenodd;clip-rule:evenodd;fill:#0D395E;" d="M2,0h36c1.105,0,2,1.007,2,2.25v40.501
	C40,43.994,39.105,45,38,45H2c-1.105,0-2-1.006-2-2.249V2.25C0,1.007,0.895,0,2,0z"/>
<path style="fill:#FFFFFF;" d="M20,8.206c-5.916,0-10.728,4.813-10.728,10.728c0,5.174,8.324,16.22,10.728,19.3
	c2.402-3.08,10.728-14.126,10.728-19.3C30.728,13.019,25.915,8.206,20,8.206z M20,24.297c-2.957,0-5.364-2.406-5.364-5.363
	S17.043,13.57,20,13.57c2.957,0,5.364,2.407,5.364,5.364S22.957,24.297,20,24.297z"/>
</svg>
