<?xml version="1.0" encoding="iso-8859-1"?>
<!-- Generator: Adobe Illustrator 21.1.0, SVG Export Plug-In . SVG Version: 6.00 Build 0)  -->
<svg version="1.1" id="Layer_1" xmlns="http://www.w3.org/2000/svg" xmlns:xlink="http://www.w3.org/1999/xlink" x="0px" y="0px"
	 viewBox="0 0 106 95" style="enable-background:new 0 0 106 95;" xml:space="preserve">
<g>
	<path style="fill:#84A1B2;" d="M40.371,33.502l-9.248-1.668L8.757,54.031l1.682,9.18L0,73.574L14.292,87.76l10.439-10.362
		l5.887,0.837l24.888-24.701l-0.843-5.843l10.439-10.364L50.81,23.14L40.371,33.502z M51.888,37.926L14.896,74.645
		c-0.697,0.691-1.825,0.691-2.522,0c-0.697-0.692-0.697-1.812,0-2.503l36.99-36.719c0.698-0.691,1.827-0.691,2.524,0
		C52.583,36.114,52.585,37.234,51.888,37.926z"/>
	<path style="fill:#84A1B2;" d="M105.533,12.35c-0.355-0.353-0.759-0.532-1.205-0.532h-4.41V7.372c0-0.443-0.16-0.821-0.474-1.134
		c-0.355-0.351-0.752-0.526-1.198-0.526h-4.082V1.66c0-0.443-0.153-0.816-0.467-1.127C93.342,0.18,92.938,0,92.492,0H44.786
		c-0.446,0-0.822,0.18-1.136,0.532c-0.049,0-0.07,0.021-0.07,0.061L32.1,11.991c-0.355,0.313-0.536,0.691-0.536,1.134l-0.063,0.064
		v15.146c0.085,0.009,0.167,0,0.253,0.014l7.416,1.338l9.119-9.05c1.348-1.338,3.696-1.338,5.044,0l14.292,14.186
		c0.674,0.669,1.045,1.558,1.045,2.503s-0.371,1.834-1.045,2.503l-9.178,9.112l0.592,4.089c0.155,1.101-0.221,2.223-1.01,3.006
		L33.139,80.738c-0.444,0.443-1.008,0.747-1.613,0.906c0.03,0.392,0.183,0.75,0.51,1.077c0.314,0.309,0.69,0.462,1.136,0.462h4.075
		v4.045c0,0.443,0.181,0.844,0.536,1.196c0.272,0.271,0.557,0.422,0.871,0.463h0.265h4.417v4.453c0,0.443,0.181,0.837,0.536,1.189
		c0.265,0.27,0.557,0.422,0.871,0.47h0.265h59.319c0.446,0,0.85-0.159,1.205-0.47c0.314-0.353,0.467-0.747,0.467-1.189V13.478
		C106,13.035,105.847,12.655,105.533,12.35z M46.496,13.334c0,0.387-0.134,0.731-0.409,1.039c-0.31,0.273-0.664,0.411-1.054,0.411
		H34.845L46.496,3.212V13.334z M40.592,85.568v-2.386h51.9c0.446,0,0.85-0.159,1.205-0.462c0.314-0.354,0.467-0.756,0.467-1.198
		V9.031h2.41v76.537H40.592z M102.656,91.681H46.681v-2.794h51.566c0.446,0,0.843-0.152,1.198-0.463
		c0.314-0.353,0.474-0.754,0.474-1.196v-72.09h2.738V91.681z"/>
</g>
</svg>
