<?xml version="1.0" encoding="iso-8859-1"?>
<!-- Generator: Adobe Illustrator 21.1.0, SVG Export Plug-In . SVG Version: 6.00 Build 0)  -->
<svg version="1.1" id="Layer_1" xmlns="http://www.w3.org/2000/svg" xmlns:xlink="http://www.w3.org/1999/xlink" x="0px" y="0px"
	 viewBox="0 0 70 64" style="enable-background:new 0 0 70 64;" xml:space="preserve">
<g>
	<path style="fill:#FFFFFF;" d="M70,25.746l-5.234,0.029C61.785,11.114,48.509,0,32.701,0h-0.189
		C23.777,0.05,15.585,3.424,9.446,9.503C3.308,15.578-0.047,23.634,0,32.186C0.052,40.734,3.502,48.75,9.713,54.76
		C15.873,60.719,24.033,64,32.69,64c0.001,0,0.003,0,0.004,0h0.195c10.472-0.06,20.36-5.085,26.451-13.443l0.856-1.175l-4.144-2.89
		l-0.856,1.175c-5.143,7.059-13.493,11.305-22.327,11.355h-0.175c-7.311,0-14.203-2.771-19.405-7.801
		c-5.244-5.077-8.156-11.847-8.199-19.062c-0.042-7.22,2.791-14.022,7.976-19.153c5.182-5.133,12.099-7.983,19.468-8.025h0.168
		c13.009,0,23.984,8.913,26.863,20.824l-3.531,0.019l4.282,7.164l0.002,0.268l0.158-0.001l2.612,4.37L70,25.746z"/>
	<path style="fill:#FFFFFF;" d="M45.968,19.662L29.264,36.036l-7.87-7.728c-0.247-0.241-0.608-0.386-0.964-0.386
		s-0.717,0.145-0.965,0.387l-3.319,3.248c-0.248,0.242-0.396,0.595-0.396,0.944c0,0.348,0.148,0.701,0.396,0.943L28.3,45.338
		c0.495,0.485,1.434,0.484,1.928,0.001l20.989-20.54c0.248-0.242,0.396-0.596,0.396-0.944c0-0.349-0.148-0.702-0.396-0.944
		l-3.319-3.249C47.403,19.178,46.466,19.177,45.968,19.662z"/>
</g>
</svg>
