<?xml version="1.0" encoding="iso-8859-1"?>
<!-- Generator: Adobe Illustrator 21.1.0, SVG Export Plug-In . SVG Version: 6.00 Build 0)  -->
<svg version="1.1" id="Layer_1" xmlns="http://www.w3.org/2000/svg" xmlns:xlink="http://www.w3.org/1999/xlink" x="0px" y="0px"
	 viewBox="0 0 126 126" style="enable-background:new 0 0 126 126;" xml:space="preserve">
<circle style="fill:#047866;" cx="63" cy="63" r="63"/>
<g>
	<path style="fill:#FFFFFF;" d="M67.038,65.869c1.195,0,2.13-0.935,2.13-2.13c0-1.195-0.935-2.13-2.13-2.13
		c-1.195,0-2.13,0.935-2.13,2.13C64.908,64.934,65.843,65.869,67.038,65.869z"/>
	<path style="fill:#FFFFFF;" d="M51.419,55.219c1.195,0,2.13-0.935,2.13-2.13s-0.935-2.13-2.13-2.13s-2.13,0.935-2.13,2.13
		S50.224,55.219,51.419,55.219z"/>
	<path style="fill:#FFFFFF;" d="M51.419,72.258c-1.195,0-2.13,0.935-2.13,2.13c0,1.195,0.935,2.13,2.13,2.13s2.13-0.935,2.13-2.13
		C53.549,73.194,52.613,72.258,51.419,72.258z"/>
	<path style="fill:#FFFFFF;" d="M87.8,39.534c-0.242-0.242-0.518-0.366-0.822-0.366h-3.007v-3.054c0-0.304-0.109-0.565-0.324-0.78
		c-0.242-0.242-0.513-0.361-0.817-0.361h-2.784v-2.784c0-0.304-0.105-0.561-0.319-0.775c-0.242-0.242-0.518-0.365-0.822-0.365
		H46.366c-0.304,0-0.56,0.123-0.774,0.365c-0.034,0-0.048,0.015-0.048,0.043l-7.831,7.831c-0.242,0.214-0.366,0.476-0.366,0.78
		l-0.043,0.043v46.955c0,0.304,0.119,0.575,0.366,0.822c0.214,0.214,0.471,0.319,0.775,0.319h2.779v2.779
		c0,0.304,0.124,0.58,0.366,0.822c0.185,0.185,0.38,0.289,0.594,0.317c0.062,0,0.124,0,0.18,0h3.013v3.061
		c0,0.304,0.124,0.575,0.366,0.817c0.18,0.185,0.38,0.29,0.594,0.324c0.062,0,0.119,0,0.181,0h40.459
		c0.304,0,0.58-0.109,0.822-0.324c0.214-0.242,0.319-0.513,0.319-0.817V40.309C88.119,40.005,88.014,39.743,87.8,39.534z
		 M51.419,48.12c2.729,0,4.97,2.241,4.97,4.97c0,0.233-0.015,0.462-0.044,0.688l7.455,6.212c0.873-0.758,2-1.22,3.239-1.22
		c2.729,0,4.97,2.241,4.97,4.97c0,2.729-2.241,4.97-4.97,4.97c-1.249,0-2.385-0.473-3.261-1.242l-7.455,6.212
		c0.033,0.233,0.066,0.47,0.066,0.71c0,2.729-2.241,4.97-4.97,4.97c-2.729,0-4.97-2.241-4.97-4.97c0-2.729,2.241-4.97,4.97-4.97
		c1.431,0,2.729,0.617,3.639,1.598l7.189-5.991c-0.112-0.414-0.178-0.839-0.178-1.286c0-0.454,0.062-0.891,0.178-1.309l-7.167-5.99
		c-0.91,0.991-2.219,1.62-3.66,1.62c-2.729,0-4.97-2.241-4.97-4.97S48.689,48.12,51.419,48.12z M39.586,41.207l7.947-7.951v6.954
		c0,0.266-0.091,0.502-0.279,0.714c-0.212,0.187-0.453,0.283-0.719,0.283H39.586z M43.506,89.843v-1.638h35.399
		c0.304,0,0.58-0.11,0.822-0.319c0.214-0.242,0.319-0.518,0.319-0.822V37.253h1.645v52.59H43.506z M85.838,94.045H47.659v-1.921
		H82.83c0.304,0,0.575-0.105,0.817-0.317c0.214-0.242,0.324-0.518,0.324-0.822V41.449h1.867V94.045z"/>
</g>
</svg>
