<?xml version="1.0" encoding="iso-8859-1"?>
<!-- Generator: Adobe Illustrator 21.1.0, SVG Export Plug-In . SVG Version: 6.00 Build 0)  -->
<svg version="1.1" id="Layer_1" xmlns="http://www.w3.org/2000/svg" xmlns:xlink="http://www.w3.org/1999/xlink" x="0px" y="0px"
	 viewBox="0 0 60 60" style="enable-background:new 0 0 60 60;" xml:space="preserve">
<g>
	<path style="fill:#FFFFFF;" d="M31.161,28.29v-0.042c-0.008,0.014-0.018,0.028-0.027,0.042H31.161z"/>
	<rect x="20.795" y="26.519" style="fill:#FFFFFF;" width="4.059" height="12.213"/>
	<path style="fill:#FFFFFF;" d="M22.826,24.851h-0.027c-1.362,0-2.243-0.938-2.243-2.11c0-1.198,0.908-2.11,2.296-2.11
		c1.389,0,2.243,0.912,2.27,2.11C25.123,23.913,24.241,24.851,22.826,24.851z"/>
	<path style="fill:#FFFFFF;" d="M39.492,38.732h-4.059v-6.535c0-1.641-0.587-2.761-2.056-2.761c-1.121,0-1.789,0.755-2.083,1.485
		c-0.107,0.261-0.133,0.625-0.133,0.99v6.821h-4.059c0,0,0.053-11.068,0-12.213h4.059v1.729c0.54-0.832,1.504-2.017,3.659-2.017
		c2.67,0,4.672,1.746,4.672,5.498V38.732z"/>
</g>
<path style="fill:#555555;" d="M30,4c14.336,0,26,11.664,26,26S44.336,56,30,56S4,44.336,4,30S15.664,4,30,4 M30,0
	C13.432,0,0,13.431,0,30c0,16.569,13.432,30,30,30c16.569,0,30-13.431,30-30C60,13.431,46.569,0,30,0L30,0z"/>
</svg>
