<?xml version="1.0" encoding="iso-8859-1"?>
<!-- Generator: Adobe Illustrator 21.1.0, SVG Export Plug-In . SVG Version: 6.00 Build 0)  -->
<svg version="1.1" id="Layer_1" xmlns="http://www.w3.org/2000/svg" xmlns:xlink="http://www.w3.org/1999/xlink" x="0px" y="0px"
	 viewBox="0 0 80 80" style="enable-background:new 0 0 80 80;" xml:space="preserve">
<g>
	<polygon style="fill:#FFFFFF;" points="41.594,50.74 41.594,19.288 38.411,19.288 38.411,50.74 31.711,50.74 40.003,59.027 
		48.289,50.74 	"/>
	<path style="fill:#FFFFFF;" d="M40,2.476c20.691,0,37.524,16.833,37.524,37.524c0,20.691-16.833,37.524-37.524,37.524
		C19.309,77.524,2.476,60.691,2.476,40C2.476,19.309,19.309,2.476,40,2.476 M40,0C17.909,0,0,17.909,0,40c0,22.091,17.909,40,40,40
		s40-17.909,40-40C80,17.909,62.092,0,40,0L40,0z"/>
</g>
</svg>
