<?xml version="1.0" encoding="iso-8859-1"?>
<!-- Generator: Adobe Illustrator 21.1.0, SVG Export Plug-In . SVG Version: 6.00 Build 0)  -->
<svg version="1.1" id="Layer_1" xmlns="http://www.w3.org/2000/svg" xmlns:xlink="http://www.w3.org/1999/xlink" x="0px" y="0px"
	 viewBox="0 0 126 126" style="enable-background:new 0 0 126 126;" xml:space="preserve">
<circle style="fill:#3A6A86;" cx="63" cy="63" r="63"/>
<g>
	
		<path style="fill-rule:evenodd;clip-rule:evenodd;fill:#FFFFFF;stroke:#FFFFFF;stroke-width:1.5045;stroke-linecap:round;stroke-linejoin:round;stroke-miterlimit:10;" d="
		M45.578,87.372l48.595-9.718c0.655-0.133,1.079-0.769,0.951-1.428c-0.133-0.655-0.762-1.087-1.428-0.951L33.209,87.376"/>
	
		<path style="fill:#FFFFFF;stroke:#FFFFFF;stroke-width:1.5045;stroke-linecap:round;stroke-linejoin:round;stroke-miterlimit:10;" d="
		M63.165,24.459v-7.241h-1.237v7.238c0.206-0.007,0.412-0.016,0.618-0.016C62.753,24.443,62.959,24.449,63.165,24.459z"/>
	
		<path style="fill:#FFFFFF;stroke:#FFFFFF;stroke-width:1.5045;stroke-linecap:round;stroke-linejoin:round;stroke-miterlimit:10;" d="
		M53.977,26.582l-3.617-6.265l-1.07,0.618l3.617,6.265C53.256,26.985,53.614,26.775,53.977,26.582z"/>
	
		<path style="fill:#FFFFFF;stroke:#FFFFFF;stroke-width:1.5045;stroke-linecap:round;stroke-linejoin:round;stroke-miterlimit:10;" d="
		M40.512,29.939l-0.309,0.534l6.266,3.618c0.193-0.364,0.402-0.722,0.622-1.07l-6.266-3.618L40.512,29.939z"/>
	
		<path style="fill:#FFFFFF;stroke:#FFFFFF;stroke-width:1.5045;stroke-linecap:round;stroke-linejoin:round;stroke-miterlimit:10;" d="
		M84.581,55.381l0.309-0.534l-6.263-3.618c-0.193,0.365-0.402,0.722-0.622,1.07l6.266,3.618L84.581,55.381z"/>
	
		<path style="fill:#FFFFFF;stroke:#FFFFFF;stroke-width:1.5045;stroke-linecap:round;stroke-linejoin:round;stroke-miterlimit:10;" d="
		M44.326,42.659c0-0.206,0.01-0.412,0.016-0.618h-7.239v1.237h7.239C44.336,43.072,44.326,42.869,44.326,42.659z"/>
	
		<path style="fill:#FFFFFF;stroke:#FFFFFF;stroke-width:1.5045;stroke-linecap:round;stroke-linejoin:round;stroke-miterlimit:10;" d="
		M87.99,42.041h-7.239c0.007,0.206,0.017,0.412,0.017,0.618s-0.01,0.412-0.017,0.618h7.239V42.041z"/>
	
		<path style="fill:#FFFFFF;stroke:#FFFFFF;stroke-width:1.5045;stroke-linecap:round;stroke-linejoin:round;stroke-miterlimit:10;" d="
		M40.512,55.381l0.309,0.535l6.266-3.618c-0.219-0.348-0.426-0.705-0.622-1.07L40.2,54.846L40.512,55.381z"/>
	
		<path style="fill:#FFFFFF;stroke:#FFFFFF;stroke-width:1.5045;stroke-linecap:round;stroke-linejoin:round;stroke-miterlimit:10;" d="
		M84.272,29.404l-6.266,3.618c0.219,0.348,0.425,0.705,0.622,1.07l6.263-3.618L84.272,29.404z"/>
	
		<path style="fill:#FFFFFF;stroke:#FFFFFF;stroke-width:1.5045;stroke-linecap:round;stroke-linejoin:round;stroke-miterlimit:10;" d="
		M74.733,20.316l-3.617,6.262c0.364,0.194,0.722,0.403,1.07,0.622l3.617-6.265L74.733,20.316z"/>
	
		<path style="fill:#FFFFFF;stroke:#FFFFFF;stroke-width:1.5045;stroke-linecap:round;stroke-linejoin:round;stroke-miterlimit:10;" d="
		M54.761,53.297c-3.611-2.706-5.548-7.01-5.174-11.51c0.512-6.166,5.338-11.133,11.474-11.813c3.76-0.419,7.368,0.731,10.161,3.231
		c2.754,2.467,4.332,5.998,4.332,9.693c0,4.12-1.9,7.908-5.212,10.392c-0.615,0.464-1.021,1.137-1.163,1.907h-6.014V42.647h-1.237
		v12.547h-6.011C55.775,54.431,55.376,53.758,54.761,53.297z M67.099,67.541V66.35c1.939-0.676,3.257-2.496,3.257-4.584v-5.949
		c-0.003-0.625,0.264-1.186,0.731-1.537c3.628-2.719,5.705-6.868,5.705-11.38c0-4.047-1.729-7.915-4.744-10.615
		c-3.058-2.738-7.007-3.994-11.121-3.539c-6.723,0.744-12.009,6.185-12.57,12.94c-0.409,4.928,1.707,9.638,5.663,12.602
		c0.461,0.345,0.725,0.902,0.722,1.543v5.937c0,2.088,1.318,3.905,3.257,4.584v1.192c0,1.389,1.131,2.519,2.519,2.519h4.062
		C65.967,70.061,67.099,68.93,67.099,67.541z"/>
	<path style="fill:#FFFFFF;" d="M26.066,114.043C36.445,121.568,49.199,126,63,126c13.293,0,25.618-4.115,35.782-11.144v-6.563
		H26.066V114.043z M53.109,113.461h16.937c0.624,0,1.129,0.505,1.129,1.129c0,0.624-0.505,1.129-1.129,1.129H53.109
		c-0.624,0-1.129-0.505-1.129-1.129C51.98,113.966,52.484,113.461,53.109,113.461z"/>
	<g>
		<circle style="fill-rule:evenodd;clip-rule:evenodd;fill:#FFFFFF;" cx="88.326" cy="97.385" r="2.424"/>
		<rect x="34.549" y="93.749" style="fill-rule:evenodd;clip-rule:evenodd;fill:#FFFFFF;" width="21.815" height="7.272"/>
		<path style="fill-rule:evenodd;clip-rule:evenodd;fill:#FFFFFF;" d="M91.598,86.478h-46.02l-12.369,0.004
			c-3.942,0.018-7.143,3.234-7.143,7.181v12.207l72.716,0V93.662C98.782,89.7,95.559,86.478,91.598,86.478z M58.788,103.445H32.126
			V91.325h26.663V103.445z M64.848,101.021h-1.212c-0.67,0-1.212-0.542-1.212-1.212c0-0.67,0.542-1.212,1.212-1.212h1.212
			c0.67,0,1.212,0.542,1.212,1.212C66.06,100.479,65.518,101.021,64.848,101.021z M64.848,96.173h-1.212
			c-0.67,0-1.212-0.542-1.212-1.212c0-0.67,0.542-1.212,1.212-1.212h1.212c0.67,0,1.212,0.542,1.212,1.212
			C66.06,95.631,65.518,96.173,64.848,96.173z M70.908,101.021h-1.212c-0.67,0-1.212-0.542-1.212-1.212
			c0-0.67,0.542-1.212,1.212-1.212h1.212c0.67,0,1.212,0.542,1.212,1.212C72.119,100.479,71.578,101.021,70.908,101.021z
			 M70.908,96.173h-1.212c-0.67,0-1.212-0.542-1.212-1.212c0-0.67,0.542-1.212,1.212-1.212h1.212c0.67,0,1.212,0.542,1.212,1.212
			C72.119,95.631,71.578,96.173,70.908,96.173z M75.605,101.021c-0.67,0-1.212-0.542-1.212-1.212c0-0.67,0.542-1.212,1.212-1.212
			c0.67,0,1.212,0.542,1.212,1.212C76.817,100.479,76.275,101.021,75.605,101.021z M75.605,96.173c-0.67,0-1.212-0.542-1.212-1.212
			c0-0.67,0.542-1.212,1.212-1.212c0.67,0,1.212,0.542,1.212,1.212C76.817,95.631,76.275,96.173,75.605,96.173z M80.181,101.021
			c-0.67,0-1.212-0.542-1.212-1.212c0-0.67,0.542-1.212,1.212-1.212c0.67,0,1.212,0.542,1.212,1.212
			C81.394,100.479,80.852,101.021,80.181,101.021z M80.181,96.173c-0.67,0-1.212-0.542-1.212-1.212c0-0.67,0.542-1.212,1.212-1.212
			c0.67,0,1.212,0.542,1.212,1.212C81.394,95.631,80.852,96.173,80.181,96.173z M88.326,102.233c-2.674,0-4.848-2.174-4.848-4.848
			c0-2.674,2.174-4.848,4.848-4.848c2.674,0,4.848,2.174,4.848,4.848C93.174,100.059,91,102.233,88.326,102.233z"/>
	</g>
</g>
</svg>
