<?xml version="1.0" encoding="iso-8859-1"?>
<!-- Generator: Adobe Illustrator 21.1.0, SVG Export Plug-In . SVG Version: 6.00 Build 0)  -->
<svg version="1.1" id="Layer_1" xmlns="http://www.w3.org/2000/svg" xmlns:xlink="http://www.w3.org/1999/xlink" x="0px" y="0px"
	 viewBox="0 0 87 86" style="enable-background:new 0 0 87 86;" xml:space="preserve">
<g>
	<path style="fill:#84A1B2;" d="M85.558,70.982L61.993,47.695l-1.143,0.306c-7.088,1.895-8.567,3.36-9.083,3.874l-6.361,6.593
		l26.41,26.099C72.06,84.807,73.384,86,75.719,86h0.002c2.407,0,4.918-1.275,7.459-3.785C88.615,76.847,87.112,72.519,85.558,70.982
		z"/>
	<path style="fill:#84A1B2;" d="M16.081,24.057l16.746,16.554l4.907-3.902l0.182-0.163c0.725-0.736,1.448-1.612,2.209-2.672
		l0.993-1.391L24.335,15.9l-3.102-7.155L7.714,0L0,7.626l8.843,13.36L16.081,24.057z M8.253,5.18l9.709,6.278l2.928,6.75
		l14.859,14.681c-0.228,0.273-0.453,0.523-0.677,0.752l-1.949,1.551L18.414,20.654l-6.825-2.897L5.236,8.161L8.253,5.18z"/>
	<path style="fill:#84A1B2;" d="M76.309,41.5l-3.751-8.973c8.72-4.222,12.193-15.735,12.193-15.735L68.826,23.61l-3.089-7.388
		l0.339-3.706l13.301-5.733c0,0-5.403-3.399-11.833-3.399c-1.147,0-2.326,0.11-3.514,0.364c-7.843,1.688-9.549,2.023-11.253,7.081
		c-1.703,5.054-4.09,20.897-12.28,28.989L5.066,67.982c0,0-6.146,6.838,0.006,12.918c2.054,2.027,4.19,2.703,6.127,2.703
		c3.871,0,6.942-2.698,6.942-2.698l30.547-31.651C53.804,44.196,76.309,41.5,76.309,41.5z M14.139,76.61
		c-0.653,0.644-1.506,0.965-2.365,0.965c-0.856,0-1.712-0.321-2.364-0.965c-1.303-1.293-1.303-3.381,0.002-4.672
		c0.655-0.647,1.508-0.969,2.366-0.969c0.854,0,1.707,0.322,2.361,0.966C15.446,73.229,15.446,75.315,14.139,76.61z"/>
</g>
</svg>
