<?xml version="1.0" encoding="iso-8859-1"?>
<!-- Generator: Adobe Illustrator 21.1.0, SVG Export Plug-In . SVG Version: 6.00 Build 0)  -->
<svg version="1.1" id="Layer_1" xmlns="http://www.w3.org/2000/svg" xmlns:xlink="http://www.w3.org/1999/xlink" x="0px" y="0px"
	 viewBox="0 0 50 59" style="enable-background:new 0 0 50 59;" xml:space="preserve">
<path style="fill:#FFFFFF;" d="M37.532,0H0v59h50V12.282L37.532,0z M7.169,17.269l2.019,1.99l7.173-7.067l2.484,2.447l-9.657,9.515
	l-4.502-4.438L7.169,17.269z M7.169,30.478l2.019,1.99l7.173-7.067l2.484,2.447l-9.657,9.515l-4.502-4.438L7.169,30.478z
	 M4.686,46.134l2.484-2.447l2.019,1.989l7.173-7.067l2.484,2.447l-9.657,9.515L4.686,46.134z M41.853,50.164H17.95v-3.461h23.902
	V50.164z M41.853,36.954H17.95v-3.461h23.902V36.954z M41.853,23.745H17.95v-3.461h23.902V23.745z"/>
</svg>
