<?xml version="1.0" encoding="iso-8859-1"?>
<!-- Generator: Adobe Illustrator 21.1.0, SVG Export Plug-In . SVG Version: 6.00 Build 0)  -->
<svg version="1.1" id="Layer_1" xmlns="http://www.w3.org/2000/svg" xmlns:xlink="http://www.w3.org/1999/xlink" x="0px" y="0px"
	 viewBox="0 0 60 60" style="enable-background:new 0 0 60 60;" xml:space="preserve">
<path style="fill:#FFFFFF;" d="M26.064,44.268V31.013h-3.505v-4.772h3.505c0,0,0-1.956,0-4.076c0-3.203,2.07-6.145,6.841-6.145
	c1.932,0,3.36,0.185,3.36,0.185l-0.113,4.457c0,0-1.457-0.014-3.046-0.014c-1.72,0-1.996,0.793-1.996,2.109c0,1.04,0-2.217,0,3.485
	h5.179l-0.225,4.772H31.11v13.255H26.064z"/>
<path style="fill:#555555;" d="M30,4c14.336,0,26,11.664,26,26S44.336,56,30,56S4,44.336,4,30S15.664,4,30,4 M30,0
	C13.432,0,0,13.431,0,30c0,16.569,13.432,30,30,30c16.569,0,30-13.431,30-30C60,13.431,46.569,0,30,0L30,0z"/>
</svg>
