<?xml version="1.0" encoding="iso-8859-1"?>
<!-- Generator: Adobe Illustrator 21.1.0, SVG Export Plug-In . SVG Version: 6.00 Build 0)  -->
<svg version="1.1" id="Layer_1" xmlns="http://www.w3.org/2000/svg" xmlns:xlink="http://www.w3.org/1999/xlink" x="0px" y="0px"
	 viewBox="0 0 85 55" style="enable-background:new 0 0 85 55;" xml:space="preserve">
<g>
	<path style="fill:#FFFFFF;" d="M41.827,55H85v-1.087c0-6.567-12.681-11.908-16.138-12.587c-0.128-0.257-0.246-0.85-0.292-1.441
		c0.796-0.875,2.723-3.238,3.444-6.305c0.737-0.34,1.357-1.076,1.742-2.107c0.542-1.449,0.581-3.447-0.471-4.741
		c0.002-0.02,0.004-0.04,0.006-0.061c0.2-1.816,0.731-6.638-2.162-9.802c-1.719-1.879-4.315-2.833-7.717-2.833
		c-3.401,0-5.997,0.952-7.715,2.832c-2.892,3.161-2.365,7.984-2.166,9.799c0.002,0.023,0.004,0.044,0.006,0.065
		c-1.053,1.296-1.012,3.296-0.469,4.745c0.385,1.03,1.005,1.765,1.74,2.104c0.722,3.068,2.648,5.43,3.444,6.305
		c-0.045,0.583-0.164,1.181-0.29,1.44c-3.457,0.678-16.138,6.019-16.138,12.586V55z"/>
	<path style="fill:#FFFFFF;" d="M63.413,11.078V4.715c0-2.604-2.15-4.715-4.801-4.715H4.8C2.149,0,0,2.111,0,4.715v37.723
		c0,2.604,2.149,4.715,4.8,4.715h34.867L18.32,26.187c-0.588-0.577-0.588-1.514,0-2.092c0.588-0.578,1.541-0.578,2.13,0
		l22.386,21.986c3.296-3.127,7.942-5.432,11.297-6.676c-0.707-1.094-1.432-2.457-1.936-4.011c-0.839-0.728-1.513-1.718-1.953-2.895
		c-0.645-1.722-0.896-4.286,0.199-6.463c-0.231-2.612-0.313-7.507,3.015-11.144C55.77,12.362,59.121,11.078,63.413,11.078z"/>
</g>
</svg>
