<?xml version="1.0" encoding="iso-8859-1"?>
<!-- Generator: Adobe Illustrator 21.1.0, SVG Export Plug-In . SVG Version: 6.00 Build 0)  -->
<svg version="1.1" id="Layer_1" xmlns="http://www.w3.org/2000/svg" xmlns:xlink="http://www.w3.org/1999/xlink" x="0px" y="0px"
	 viewBox="0 0 126 126" style="enable-background:new 0 0 126 126;" xml:space="preserve">
<circle style="fill:#2E87BC;" cx="63" cy="63" r="63"/>
<g>
	<path style="fill-rule:evenodd;clip-rule:evenodd;fill:#FFFFFF;stroke:#FFFFFF;stroke-width:0.586;stroke-miterlimit:10;" d="
		M42.494,41.082h14.798v4.932H42.494V41.082z M40.849,47.659h18.086v-8.221H40.849V47.659z"/>
	<path style="fill-rule:evenodd;clip-rule:evenodd;fill:#FFFFFF;stroke:#FFFFFF;stroke-width:0.586;stroke-miterlimit:10;" d="
		M78.666,45.193c-0.907,0-1.644-0.737-1.644-1.644c0-0.907,0.737-1.644,1.644-1.644c0.907,0,1.644,0.737,1.644,1.644
		C80.31,44.455,79.573,45.193,78.666,45.193z M78.666,40.26c-1.814,0-3.288,1.475-3.288,3.288c0,1.814,1.474,3.288,3.288,3.288
		c1.814,0,3.288-1.474,3.288-3.288C81.954,41.735,80.48,40.26,78.666,40.26z"/>
	<path style="fill-rule:evenodd;clip-rule:evenodd;fill:#FFFFFF;stroke:#FFFFFF;stroke-width:0.586;stroke-miterlimit:10;" d="
		M63.046,41.082h-0.822c-0.454,0-0.822,0.368-0.822,0.822c0,0.455,0.368,0.822,0.822,0.822h0.822c0.454,0,0.822-0.368,0.822-0.822
		C63.868,41.45,63.501,41.082,63.046,41.082"/>
	<path style="fill-rule:evenodd;clip-rule:evenodd;fill:#FFFFFF;stroke:#FFFFFF;stroke-width:0.586;stroke-miterlimit:10;" d="
		M63.046,44.37h-0.822c-0.454,0-0.822,0.368-0.822,0.822c0,0.454,0.368,0.822,0.822,0.822h0.822c0.454,0,0.822-0.368,0.822-0.822
		C63.868,44.738,63.501,44.37,63.046,44.37"/>
	<path style="fill-rule:evenodd;clip-rule:evenodd;fill:#FFFFFF;stroke:#FFFFFF;stroke-width:0.586;stroke-miterlimit:10;" d="
		M67.157,41.082h-0.822c-0.454,0-0.822,0.368-0.822,0.822c0,0.455,0.368,0.822,0.822,0.822h0.822c0.454,0,0.822-0.368,0.822-0.822
		C67.979,41.45,67.611,41.082,67.157,41.082"/>
	<path style="fill-rule:evenodd;clip-rule:evenodd;fill:#FFFFFF;stroke:#FFFFFF;stroke-width:0.586;stroke-miterlimit:10;" d="
		M67.157,44.37h-0.822c-0.454,0-0.822,0.368-0.822,0.822c0,0.454,0.368,0.822,0.822,0.822h0.822c0.454,0,0.822-0.368,0.822-0.822
		C67.979,44.738,67.611,44.37,67.157,44.37"/>
	<path style="fill-rule:evenodd;clip-rule:evenodd;fill:#FFFFFF;stroke:#FFFFFF;stroke-width:0.8789;stroke-miterlimit:10;" d="
		M39.125,60.928l-13.619-2.725c-0.452-0.092-0.879,0.201-0.969,0.645c-0.087,0.447,0.201,0.879,0.645,0.969l13.774,2.754"/>
	<path style="fill-rule:evenodd;clip-rule:evenodd;fill:#FFFFFF;stroke:#FFFFFF;stroke-width:0.8789;stroke-miterlimit:10;" d="
		M40.863,71.324l-15.357-3.072c-0.452-0.092-0.879,0.201-0.969,0.645c-0.087,0.447,0.201,0.879,0.645,0.969l15.511,3.102"/>
	<path style="fill:#FFFFFF;stroke:#FFFFFF;stroke-width:0.8789;stroke-miterlimit:10;" d="M41.641,35.608l41.032-8.209
		c0.144-0.03,0.282-0.001,0.398,0.077c0.117,0.078,0.197,0.199,0.225,0.336c0.055,0.287-0.132,0.568-0.415,0.626l-32.964,6.592"/>
	<g>
		<path style="fill-rule:evenodd;clip-rule:evenodd;fill:#FFFFFF;" d="M64.631,62.567c0.034,0,0.059-0.026,0.059-0.059v-1.585
			h-7.399v1.585c0,0.034,0.026,0.059,0.059,0.059H64.631z"/>
		<path style="fill-rule:evenodd;clip-rule:evenodd;fill:#FFFFFF;" d="M64.631,72.432c0.034,0,0.059-0.026,0.059-0.059v-1.585
			h-7.399v1.585c0,0.033,0.026,0.059,0.059,0.059H64.631z"/>
		<path style="fill-rule:evenodd;clip-rule:evenodd;fill:#FFFFFF;" d="M74.062,60.923h-7.728v1.585c0,0.941-0.763,1.703-1.703,1.703
			h-7.281c-0.94,0-1.703-0.763-1.703-1.703v-1.585h-6.906c-0.727,0-1.315,0.589-1.315,1.315v6.906h27.951v-6.906
			C75.378,61.511,74.789,60.923,74.062,60.923z"/>
		<path style="fill-rule:evenodd;clip-rule:evenodd;fill:#FFFFFF;" d="M66.335,72.373c0,0.94-0.763,1.703-1.703,1.703h-7.281
			c-0.94,0-1.703-0.763-1.703-1.703v-1.585h-8.221v8.326h27.951v-8.326h-9.043V72.373z"/>
		<path style="fill-rule:evenodd;clip-rule:evenodd;fill:#FFFFFF;" d="M47.426,89.161h27.951v-8.404H47.426V89.161z M56.469,82.333
			h9.043c0.455,0,0.822,0.368,0.822,0.822c0,0.454-0.368,0.822-0.822,0.822h-9.043c-0.454,0-0.822-0.368-0.822-0.822
			C55.647,82.701,56.015,82.333,56.469,82.333z"/>
		<path style="fill-rule:evenodd;clip-rule:evenodd;fill:#FFFFFF;" d="M47.426,99.158h27.951v-8.352H47.426V99.158z M56.469,92.102
			h9.043c0.455,0,0.822,0.368,0.822,0.822c0,0.454-0.368,0.822-0.822,0.822h-9.043c-0.454,0-0.822-0.368-0.822-0.822
			C55.647,92.47,56.015,92.102,56.469,92.102z"/>
		<path style="fill-rule:evenodd;clip-rule:evenodd;fill:#FFFFFF;" d="M81.191,35.031H49.975l-8.333-0.003
			c-2.566,0.018-4.609,2.071-4.609,4.583v59.547h8.457v-36.92c0-1.793,1.459-3.252,3.253-3.252h25.321
			c1.793,0,3.252,1.459,3.252,3.252v36.92h8.457V39.611C85.772,37.085,83.717,35.031,81.191,35.031z M67.157,56.283H54.825
			c-0.615,0-1.115-0.5-1.115-1.115c0-0.615,0.5-1.115,1.115-1.115h12.331c0.615,0,1.115,0.5,1.115,1.115
			C68.271,55.783,67.771,56.283,67.157,56.283z M84.128,49.942H38.676V39.611c0-1.619,1.317-2.936,2.937-2.936h39.578
			c1.619,0,2.937,1.317,2.937,2.936V49.942z"/>
	</g>
</g>
</svg>
