<?xml version="1.0" encoding="iso-8859-1"?>
<!-- Generator: Adobe Illustrator 21.1.0, SVG Export Plug-In . SVG Version: 6.00 Build 0)  -->
<svg version="1.1" id="Layer_1" xmlns="http://www.w3.org/2000/svg" xmlns:xlink="http://www.w3.org/1999/xlink" x="0px" y="0px"
	 viewBox="0 0 59 58" style="enable-background:new 0 0 59 58;" xml:space="preserve">
<g>
	<path style="fill:#FFFFFF;" d="M58.022,47.871L42.041,32.166l-0.775,0.206c-4.807,1.278-5.81,2.266-6.16,2.612l-4.314,4.446
		l17.911,17.602C48.868,57.195,49.766,58,51.35,58h0.001c1.632,0,3.335-0.86,5.058-2.552C60.095,51.827,59.076,48.908,58.022,47.871
		z"/>
	<path style="fill:#FFFFFF;" d="M10.905,16.224l11.356,11.165l3.328-2.632l0.123-0.11c0.492-0.496,0.982-1.087,1.498-1.802
		l0.673-0.938L16.503,10.723l-2.104-4.826L5.231,0L0,5.143l5.997,9.011L10.905,16.224z M5.597,3.493l6.585,4.234l1.986,4.552
		l10.076,9.901c-0.155,0.184-0.308,0.352-0.459,0.507l-1.322,1.046l-9.975-9.805L7.86,11.975L3.551,5.504L5.597,3.493z"/>
	<path style="fill:#FFFFFF;" d="M51.75,27.989l-2.544-6.052c5.913-2.848,8.269-10.612,8.269-10.612l-10.8,4.598l-2.095-4.983
		l0.23-2.499l9.02-3.867c0,0-3.664-2.292-8.024-2.292c-0.778,0-1.577,0.074-2.383,0.245c-5.319,1.138-6.476,1.364-7.631,4.776
		c-1.155,3.408-2.774,14.093-8.328,19.551L3.436,45.848c0,0-4.168,4.611,0.004,8.712c1.393,1.367,2.841,1.823,4.155,1.823
		c2.625,0,4.708-1.82,4.708-1.82l20.716-21.346C36.488,29.806,51.75,27.989,51.75,27.989z M9.589,51.667
		c-0.443,0.434-1.021,0.651-1.604,0.651c-0.58,0-1.161-0.216-1.603-0.651c-0.884-0.872-0.884-2.28,0.001-3.151
		c0.444-0.436,1.022-0.654,1.605-0.654c0.579,0,1.158,0.217,1.601,0.652C10.475,49.387,10.475,50.794,9.589,51.667z"/>
</g>
</svg>
