<?xml version="1.0" encoding="iso-8859-1"?>
<!-- Generator: Adobe Illustrator 21.1.0, SVG Export Plug-In . SVG Version: 6.00 Build 0)  -->
<svg version="1.1" id="Layer_1" xmlns="http://www.w3.org/2000/svg" xmlns:xlink="http://www.w3.org/1999/xlink" x="0px" y="0px"
	 viewBox="0 0 65 96" style="enable-background:new 0 0 65 96;" xml:space="preserve">
<g>
	<path style="fill:#84A1B2;" d="M0,26.503c0-4.015,1.321-8.084,3.964-12.205c2.644-4.122,6.5-7.535,11.57-10.241
		C20.605,1.353,26.52,0,33.28,0C39.562,0,45.11,1.13,49.92,3.391c4.81,2.263,8.524,5.338,11.147,9.227
		C63.688,16.508,65,20.734,65,25.299c0,3.594-0.748,6.744-2.243,9.448c-1.496,2.706-3.273,5.041-5.331,7.007
		c-2.059,1.966-5.752,5.274-11.082,9.923c-1.474,1.311-2.655,2.464-3.542,3.457c-0.889,0.993-1.55,1.902-1.983,2.725
		c-0.434,0.825-0.77,1.65-1.008,2.475c-0.239,0.823-0.597,2.272-1.073,4.343c-0.823,4.396-3.402,6.594-7.735,6.594
		c-2.253,0-4.149-0.719-5.687-2.155c-1.539-1.438-2.308-3.573-2.308-6.405c0-3.552,0.563-6.627,1.69-9.227
		c1.126-2.598,2.621-4.882,4.485-6.848c1.863-1.966,4.376-4.301,7.54-7.005c2.772-2.369,4.777-4.154,6.012-5.359
		c1.235-1.205,2.275-2.547,3.12-4.027c0.845-1.478,1.267-3.084,1.267-4.819c0-3.381-1.289-6.235-3.867-8.559
		c-2.578-2.325-5.905-3.488-9.977-3.488c-4.767,0-8.277,1.175-10.53,3.52c-2.253,2.346-4.16,5.802-5.72,10.367
		c-1.474,4.778-4.268,7.166-8.385,7.166c-2.427,0-4.475-0.834-6.142-2.505C0.834,30.257,0,28.45,0,26.503z M31.72,96
		c-2.644,0-4.951-0.835-6.922-2.504c-1.973-1.669-2.958-4.006-2.958-7.007c0-2.663,0.952-4.903,2.86-6.721
		c1.907-1.818,4.246-2.727,7.02-2.727c2.73,0,5.026,0.91,6.89,2.727c1.862,1.818,2.795,4.057,2.795,6.721
		c0,2.959-0.975,5.285-2.925,6.975C36.53,95.154,34.276,96,31.72,96z"/>
</g>
</svg>
