<?xml version="1.0" encoding="iso-8859-1"?>
<!-- Generator: Adobe Illustrator 21.1.0, SVG Export Plug-In . SVG Version: 6.00 Build 0)  -->
<svg version="1.1" id="Layer_1" xmlns="http://www.w3.org/2000/svg" xmlns:xlink="http://www.w3.org/1999/xlink" x="0px" y="0px"
	 viewBox="0 0 44 31" style="enable-background:new 0 0 44 31;" xml:space="preserve">
<g>
	<g>
		<path style="fill:#FFFFFF;" d="M25.841,31H0V0h19.364l6.477,6.722V31z M3.055,27.828h19.73V8.036l-4.687-4.864H3.055V27.828z"/>
		<g>
			<path style="fill:#FFFFFF;" d="M9.966,15.466c0,0.383-0.132,0.753-0.397,1.108c-0.14,0.184-0.35,0.333-0.628,0.449
				c-0.278,0.116-0.607,0.174-0.987,0.174H7.129v2.209H5.796v-5.68h2.158c0.635,0,1.128,0.17,1.481,0.51
				C9.79,14.576,9.966,14.986,9.966,15.466z M7.129,16.146h0.826c0.203,0,0.363-0.062,0.479-0.186
				c0.117-0.124,0.176-0.287,0.176-0.489s-0.06-0.368-0.18-0.498c-0.119-0.13-0.277-0.194-0.475-0.194H7.129V16.146z"/>
			<path style="fill:#FFFFFF;" d="M12.694,13.726c0.873,0,1.59,0.263,2.151,0.789c0.561,0.526,0.842,1.208,0.842,2.047
				s-0.281,1.522-0.842,2.051c-0.561,0.529-1.278,0.793-2.151,0.793h-1.925v-5.68H12.694z M12.102,18.354h0.592
				c0.509,0,0.91-0.162,1.201-0.485c0.291-0.324,0.437-0.758,0.437-1.302c0-0.545-0.145-0.979-0.437-1.303
				c-0.29-0.324-0.691-0.485-1.201-0.485h-0.592V18.354z"/>
			<path style="fill:#FFFFFF;" d="M16.529,19.406v-5.68h3.562v1.052h-2.229V16h1.668v1.052h-1.668v2.354H16.529z"/>
		</g>
	</g>
	<polygon style="fill:#FFFFFF;" points="44,15.293 41.84,13.05 37.457,17.6 37.457,4.743 34.402,4.743 34.402,17.6 30.02,13.05 
		27.859,15.293 35.507,23.232 28.939,23.232 28.939,26.404 42.92,26.404 42.92,23.232 36.353,23.232 	"/>
</g>
</svg>
